<svg width="1435" height="759" viewBox="0 0 1435 759" fill="none" xmlns="http://www.w3.org/2000/svg">
<path d="M1307 415.488L1264.82 425L1247 391.877L1283.07 378L1307 415.488Z" fill="#2F2E41"/>
<path d="M1206.47 459.304L1200.74 447.925C1200.29 447.046 1200.04 446.08 1200.01 445.093C1199.97 444.107 1200.14 443.123 1200.51 442.211C1200.88 441.299 1201.44 440.479 1202.16 439.809C1202.87 439.139 1203.72 438.635 1204.64 438.331V438.331C1205.57 438.025 1206.56 437.929 1207.53 438.052C1208.5 438.174 1209.44 438.512 1210.27 439.04C1211.1 439.568 1211.8 440.275 1212.34 441.11C1212.87 441.946 1213.21 442.889 1213.35 443.875L1214.91 455.241L1229.57 478.714V464.721L1246 466.526L1243.7 491.465C1243.58 492.715 1243.22 493.93 1242.64 495.037C1242.06 496.143 1241.26 497.12 1240.3 497.91V497.91C1239.25 498.769 1238.03 499.386 1236.73 499.718C1235.42 500.05 1234.06 500.089 1232.74 499.833C1231.42 499.576 1230.17 499.03 1229.07 498.232C1227.98 497.434 1227.07 496.404 1226.41 495.213L1206.47 459.304Z" fill="#A0616A"/>
<path d="M1332.35 684.105L1319.32 685L1310.78 604.9L1261.34 556.571L1256.39 685H1241.56C1232.51 606.145 1210.82 522.217 1238.86 501.977L1246.5 489L1292.8 497.502L1294.6 515.402L1302.91 536.194L1334.22 588.571C1336.23 591.923 1337.18 595.792 1336.97 599.686L1332.35 684.105Z" fill="#2F2E41"/>
<path d="M1250 720C1248.49 720 1246.99 719.698 1245.6 719.114C1244.22 718.53 1242.97 717.676 1241.94 716.604C1240.91 715.533 1240.12 714.268 1239.62 712.889C1239.12 711.51 1238.92 710.045 1239.03 708.587L1240.93 683.777C1246.57 678.198 1251.8 678.928 1256.67 685.119L1260.83 707.495C1261.11 709.025 1261.04 710.597 1260.63 712.1C1260.22 713.602 1259.47 714.999 1258.44 716.191C1257.4 717.384 1256.11 718.343 1254.66 719.001C1253.2 719.659 1251.61 720 1250 720V720Z" fill="#DE4F1C"/>
<path d="M1337.08 725C1336.11 725 1335.14 724.797 1334.26 724.403C1333.37 724.009 1332.58 723.434 1331.93 722.715L1306.99 695.096C1306.28 694.316 1305.75 693.401 1305.41 692.408C1305.07 691.414 1304.94 690.363 1305.03 689.318C1305.11 688.273 1305.41 687.256 1305.9 686.329C1306.39 685.403 1307.07 684.586 1307.89 683.928L1317.79 676L1332.25 682.294L1343.64 715.916C1343.99 716.952 1344.09 718.056 1343.92 719.137C1343.76 720.217 1343.34 721.244 1342.7 722.132C1342.06 723.019 1341.21 723.742 1340.24 724.241C1339.26 724.74 1338.18 725 1337.08 725V725Z" fill="#DE4F1C"/>
<path d="M1273 413C1281.84 413 1289 405.837 1289 397C1289 388.163 1281.84 381 1273 381C1264.16 381 1257 388.163 1257 397C1257 405.837 1264.16 413 1273 413Z" fill="#A0616A"/>
<path d="M1282.38 467H1261.72L1257 425.468C1262.03 418.305 1263.67 410.822 1261.72 403H1282.38C1279.2 410.024 1279.74 417.057 1288 424.106L1282.38 467Z" fill="#A0616A"/>
<path d="M1291.85 498.654C1275.62 504.609 1260.4 502.768 1246.35 491.899C1246.01 478.886 1242.83 462.739 1238.38 445.191C1237.71 442.56 1237.93 439.783 1239 437.288C1240.07 434.793 1241.93 432.719 1244.3 431.388L1257.61 423.901L1272.48 459.026L1285.99 423L1294.98 424.996C1297.1 425.47 1299.02 426.607 1300.45 428.243C1301.88 429.879 1302.75 431.928 1302.94 434.092C1305.29 460.811 1304.59 484.902 1291.85 498.654Z" fill="#E6E6E6"/>
<path d="M1248 475.87C1238.93 476.78 1232.41 472.894 1228 465.054L1231.04 450.608C1231.04 445.909 1232.49 441.332 1235.17 437.542C1237.85 433.751 1241.62 430.945 1245.95 429.53L1247.57 429L1248 475.87Z" fill="#E6E6E6"/>
<path d="M1315.61 540.26L1317.83 550.255C1318.08 551.394 1318.05 552.577 1317.75 553.702C1317.44 554.828 1316.87 555.862 1316.07 556.715C1315.28 557.568 1314.28 558.215 1313.18 558.599C1312.08 558.983 1310.91 559.094 1309.75 558.92V558.92C1308.78 558.774 1307.85 558.429 1307.01 557.907C1306.18 557.384 1305.46 556.695 1304.9 555.883C1304.34 555.071 1303.96 554.152 1303.77 553.185C1303.58 552.217 1303.59 551.222 1303.81 550.259L1306.23 539.313L1299 469.289L1313.36 463L1315.61 540.26Z" fill="#A0616A"/>
<path d="M1297 471.873C1306.07 472.763 1312.59 468.96 1317 461.287L1313.96 447.149C1313.96 442.549 1312.51 438.07 1309.83 434.36C1307.15 430.65 1303.38 427.903 1299.05 426.518L1297.43 426L1297 471.873Z" fill="#E6E6E6"/>
<path d="M1281.52 372.496C1281.52 372.496 1290.85 374.234 1293.01 385.758C1293.34 387.701 1293.4 389.682 1293.19 391.642C1292.97 393.86 1293.29 398.545 1298.15 404.061C1301.32 407.639 1304.28 411.4 1307 415.324V415.324L1297.25 417.894L1292.9 401.898C1290.79 394.143 1287.54 386.738 1283.25 379.922L1283.16 379.779C1283.16 379.779 1279.92 388.347 1271.24 389.522L1273.92 386.033C1273.92 386.033 1263.78 391.841 1258.03 393.615C1257.38 393.818 1256.79 394.194 1256.33 394.702C1255.88 395.211 1255.57 395.834 1255.44 396.503C1255.32 397.172 1255.38 397.862 1255.62 398.499C1255.86 399.136 1256.27 399.696 1256.81 400.118C1256.85 400.15 1256.9 400.182 1256.94 400.214C1261.16 403.394 1269.79 410.981 1266.38 418.322C1262.97 425.662 1266.95 427 1266.95 427L1259.62 424.239L1256.27 422.817L1256.61 425.273L1240.24 425.613C1240.24 425.613 1235.82 425.586 1243.67 413.891C1243.67 413.891 1245.57 409.506 1244.01 406.156C1242.76 403.619 1242.14 400.824 1242.2 398.002C1242.69 386.212 1247.71 362.225 1281.52 372.496Z" fill="#2F2E41"/>
<g clip-path="url(#clip0)">
<path opacity="0.1" d="M814.66 626.3C931.391 626.3 1026.02 607.908 1026.02 585.22C1026.02 562.532 931.391 544.14 814.66 544.14C697.929 544.14 603.3 562.532 603.3 585.22C603.3 607.908 697.929 626.3 814.66 626.3Z" fill="#DE4F1C"/>
<g opacity="0.5">
<path opacity="0.5" d="M633.62 103.56C630.77 104.37 627.28 106.48 625.56 112.25C622.19 123.56 630.02 131.25 627.44 143.04C626.724 146.168 625.361 149.111 623.44 151.68C620.29 155.95 616.87 157.97 613.55 160.96C609.339 164.78 606.321 169.735 604.86 175.23C603.259 181.295 603.125 187.653 604.47 193.78C605.65 198.9 607.66 202.63 609.42 206.78C611.608 212.073 613.318 217.552 614.53 223.15C615.195 225.876 615.57 228.665 615.65 231.47C615.6 235.197 615.266 238.914 614.65 242.59L609.86 276.01C609.132 280.38 608.695 284.793 608.55 289.22C608.613 293.657 609.125 298.076 610.08 302.41C611.76 311.25 613.57 320.41 617.42 325.09C621.27 329.77 627.83 328.09 631.86 318.62C635.69 309.56 635.78 297.47 639.16 287.79C644.49 272.54 655.08 270.49 660.96 255.94C666.6 241.94 664.87 224.86 667.73 208.94C669.73 197.53 674.14 187.13 676.73 175.86C680.45 159.63 680.08 142.78 677.11 130.3C674.851 120.046 669.965 110.555 662.93 102.76C660.44 100.01 657.77 97.56 654.64 97.31C651.31 97.05 648.4 101.24 645.11 102.5C641.31 103.99 637.49 102.46 633.62 103.56Z" fill="#DE4F1C"/>
<path opacity="0.5" d="M651.65 98.16C651.65 98.16 646.01 242.5 622.29 327.61" stroke="#535461" stroke-width="2" stroke-miterlimit="10"/>
<path opacity="0.5" d="M625.42 112.93C625.42 112.93 650.77 136.01 645.96 179.93" stroke="#535461" stroke-width="2" stroke-miterlimit="10"/>
<path opacity="0.5" d="M604.15 178.61C604.15 178.61 645.76 186.98 642.67 211.87" stroke="#535461" stroke-width="2" stroke-miterlimit="10"/>
<path opacity="0.5" d="M677.18 130C677.18 130 660.34 144.74 645.34 186.49" stroke="#535461" stroke-width="2" stroke-miterlimit="10"/>
<path opacity="0.5" d="M660.73 256.18C660.73 256.18 649.24 265.18 640.02 233.67" stroke="#535461" stroke-width="2" stroke-miterlimit="10"/>
<path opacity="0.5" d="M611.15 274.59C611.15 274.59 634.58 271.53 636.74 256.86" stroke="#535461" stroke-width="2" stroke-miterlimit="10"/>
</g>
<path d="M690.26 6.75004C684.46 7.61004 677.48 10.3 674.61 18.59C668.98 34.85 686.09 47.16 682.15 64.15C680.974 68.8256 678.499 73.0728 675.01 76.4C669.01 82.31 662.15 84.89 655.65 88.9C649.15 92.91 642.4 99.22 639.35 108.9C636.42 118.21 637.69 128.49 640.74 136.17C643.79 143.85 648.4 149.58 652.52 155.9C657.527 163.679 661.712 171.957 665.01 180.6C666.673 184.54 667.79 188.688 668.33 192.93C668.86 198.13 668.19 203.72 667.52 209.19L661.57 257.93C660.78 264.41 659.98 270.99 660.43 277.23C660.94 284.42 663.07 290.7 665.17 296.83C669.69 310.05 674.53 323.83 683.06 331.11C691.59 338.39 704.97 336.83 712.18 323.29C719.04 310.4 717.78 292.61 723.63 278.76C732.85 256.93 754.53 255.16 764.96 234.44C774.96 214.56 769.37 189.13 773.39 166.03C776.27 149.48 784.07 134.68 788.07 118.39C793.84 94.92 791.07 70.07 783.45 51.39C775.83 32.71 763.78 19.39 750.85 9.16004C745.37 4.81004 739.56 0.880045 733.05 0.160045C726.13 -0.609955 720.6 5.21004 713.95 6.68004C706.21 8.29004 698.13 5.58004 690.26 6.75004Z" fill="#DE4F1C"/>
<path d="M726.94 0.930054C726.94 0.930054 732.4 212.82 693.38 335.35" stroke="#535461" stroke-width="2" stroke-miterlimit="10"/>
<path d="M674.39 19.61C674.39 19.61 729.59 56.61 724.86 120.77" stroke="#535461" stroke-width="2" stroke-miterlimit="10"/>
<path d="M638.16 113.78C638.16 113.78 725.28 131.04 721.84 167.32" stroke="#535461" stroke-width="2" stroke-miterlimit="10"/>
<path d="M783.55 50.85C783.55 50.85 750.44 70.56 724.36 130.26" stroke="#535461" stroke-width="2" stroke-miterlimit="10"/>
<path d="M764.44 234.72C764.44 234.72 741.74 246.72 718.91 199.11" stroke="#535461" stroke-width="2" stroke-miterlimit="10"/>
<path d="M664.01 255.93C664.01 255.93 712.14 254.2 714.88 232.85" stroke="#535461" stroke-width="2" stroke-miterlimit="10"/>
<path d="M67.25 578.59C67.25 578.59 75.63 589.59 63.38 606.09C51.13 622.59 41.01 636.61 45.12 646.93C45.12 646.93 63.6 616.2 78.64 615.77C93.68 615.34 83.8 597.07 67.25 578.59Z" fill="#DE4F1C"/>
<path opacity="0.1" d="M67.25 578.59C67.9978 579.647 68.5904 580.805 69.01 582.03C83.69 599.27 91.5 615.36 77.4 615.77C64.26 616.15 48.5 639.64 44.72 645.58C44.8447 646.038 44.995 646.489 45.17 646.93C45.17 646.93 63.65 616.2 78.69 615.77C93.73 615.34 83.8 597.07 67.25 578.59Z" fill="black"/>
<path d="M82.83 592.56C82.83 596.42 82.4 599.56 81.83 599.56C81.26 599.56 80.83 596.43 80.83 592.56C80.83 588.69 81.37 590.56 81.9 590.56C82.43 590.56 82.83 588.7 82.83 592.56Z" fill="#FFD037"/>
<path d="M88.18 597.16C84.79 599.01 81.84 600.16 81.59 599.65C81.34 599.14 83.87 597.3 87.26 595.46C90.65 593.62 89.31 594.96 89.57 595.46C89.83 595.96 91.56 595.31 88.18 597.16Z" fill="#FFD037"/>
<path d="M23.01 578.59C23.01 578.59 14.63 589.59 26.88 606.09C39.13 622.59 49.23 636.6 45.14 646.92C45.14 646.92 26.66 616.19 11.62 615.76C-3.42001 615.33 6.43999 597.07 23.01 578.59Z" fill="#DE4F1C"/>
<path opacity="0.1" d="M23.01 578.59C22.2797 579.65 21.704 580.808 21.3 582.03C6.61999 599.27 -1.19001 615.36 12.91 615.77C26.05 616.15 41.81 639.64 45.59 645.58C45.4653 646.038 45.315 646.489 45.14 646.93C45.14 646.93 26.66 616.2 11.62 615.77C-3.42001 615.34 6.43999 597.07 23.01 578.59Z" fill="black"/>
<path d="M7.41 592.56C7.41 596.42 7.84 599.56 8.41 599.56C8.98 599.56 9.41 596.43 9.41 592.56C9.41 588.69 8.87 590.56 8.34 590.56C7.81 590.56 7.41 588.7 7.41 592.56Z" fill="#FFD037"/>
<path d="M2.06 597.16C5.45 599.01 8.4 600.16 8.65 599.65C8.9 599.14 6.37 597.3 2.98 595.46C-0.410003 593.62 0.93 594.96 0.67 595.46C0.41 595.96 -1.32 595.31 2.06 597.16Z" fill="#FFD037"/>
<path d="M10.08 645.49C10.08 645.49 33.51 644.77 40.57 639.74C47.63 634.71 76.57 628.74 78.36 636.74C80.15 644.74 113.57 676.85 87.12 677.06C60.67 677.27 25.66 672.94 18.61 668.65C11.56 664.36 10.08 645.49 10.08 645.49Z" fill="#A8A8A8"/>
<path opacity="0.2" d="M87.59 674.28C61.14 674.49 26.13 670.16 19.08 665.87C13.71 662.6 11.57 650.87 10.86 645.46H10.08C10.08 645.46 11.56 664.36 18.61 668.65C25.66 672.94 60.67 677.28 87.12 677.06C94.76 677 97.39 674.28 97.25 670.26C96.19 672.72 93.28 674.24 87.59 674.28Z" fill="black"/>
<path d="M982.36 574.04C984.193 572.546 985.528 570.53 986.19 568.26C986.69 565.96 985.71 563.21 983.51 562.37C981.05 561.43 978.42 563.13 976.43 564.86C974.44 566.59 972.15 568.55 969.54 568.18C970.881 566.964 971.885 565.421 972.453 563.702C973.021 561.983 973.133 560.146 972.78 558.37C972.667 557.634 972.356 556.943 971.88 556.37C970.51 554.91 968.04 555.54 966.4 556.69C961.2 560.35 959.75 567.41 959.72 573.77C959.2 571.48 959.64 569.09 959.62 566.77C959.6 564.45 958.96 561.77 956.98 560.55C955.752 559.89 954.373 559.563 952.98 559.6C950.64 559.51 948.04 559.75 946.44 561.46C944.44 563.58 944.97 567.15 946.7 569.46C948.43 571.77 951.05 573.26 953.47 574.88C955.409 576.033 957.064 577.609 958.31 579.49C958.457 579.751 958.577 580.026 958.67 580.31H973.32C976.602 578.637 979.643 576.528 982.36 574.04Z" fill="#DE4F1C"/>
<path opacity="0.1" d="M439.67 497.16C675.866 497.16 867.34 478.768 867.34 456.08C867.34 433.392 675.866 415 439.67 415C203.474 415 12 433.392 12 456.08C12 478.768 203.474 497.16 439.67 497.16Z" fill="#DE4F1C"/>
<path opacity="0.1" d="M223.66 717.3C340.391 717.3 435.02 698.908 435.02 676.22C435.02 653.532 340.391 635.14 223.66 635.14C106.929 635.14 12.3 653.532 12.3 676.22C12.3 698.908 106.929 717.3 223.66 717.3Z" fill="#DE4F1C"/>
<path d="M439.72 426.41L436.37 431.28C436.37 431.28 440.02 436.15 440.37 436.76C440.72 437.37 451.02 436.46 451.02 436.46L451.93 432.81L450.41 428.55L439.72 426.41Z" fill="#E6E6F0"/>
<path d="M327.09 423.67L320.39 424.88L324.65 433.11L329.22 435.54L333.48 438.58L334.7 435.24L331.65 428.84L327.09 423.67Z" fill="#FDC2CC"/>
<path d="M436.68 344.52C436.68 344.52 472.3 353.04 478.99 362.52C478.99 362.52 485.08 367.7 478.99 377.13C472.9 386.56 464.38 407.88 464.38 407.88C464.38 407.88 458.29 428.58 455.86 430.1C453.43 431.62 439.42 432.84 438.2 427.1C438.2 427.1 446.11 414.62 446.11 408.83C446.11 403.04 459.2 375.65 459.2 375.65C459.2 375.65 429.37 372.3 419.93 374.43C410.49 376.56 424.2 341.17 436.68 344.52Z" fill="#565171"/>
<path opacity="0.1" d="M436.68 344.52C436.68 344.52 472.3 353.04 478.99 362.52C478.99 362.52 485.08 367.7 478.99 377.13C472.9 386.56 464.38 407.88 464.38 407.88C464.38 407.88 458.29 428.58 455.86 430.1C453.43 431.62 439.42 432.84 438.2 427.1C438.2 427.1 446.11 414.62 446.11 408.83C446.11 403.04 459.2 375.65 459.2 375.65C459.2 375.65 429.37 372.3 419.93 374.43C410.49 376.56 424.2 341.17 436.68 344.52Z" fill="black"/>
<path d="M429.37 352.74C429.3 354.51 429.11 356.5 428.84 358.64C426.89 374.14 420.54 397.19 420.54 397.19C420.54 397.19 414.15 410.89 412.32 419.72C410.49 428.55 398.01 430.72 398.01 430.72C398.01 430.72 363.91 434.72 356.91 433.16C349.91 431.6 338.91 437.73 333.47 436.81C328.03 435.89 324.64 423.11 324.64 423.11C334.082 423.165 343.425 421.194 352.04 417.33C366.04 410.94 386.14 413.98 386.14 413.98C387.639 413.545 389.034 412.807 390.237 411.813C391.441 410.819 392.429 409.59 393.14 408.2C395.27 403.63 395.27 375.93 394.66 374.1C390.66 362.1 390.99 354.4 392.14 349.91C392.525 347.949 393.391 346.114 394.66 344.57L429.37 352.74Z" fill="#565171"/>
<path opacity="0.1" d="M429.37 352.74C429.3 354.51 429.11 356.5 428.84 358.64C425.78 358.88 417.2 359.11 410.84 355.18C404.84 351.5 396.11 350.25 392.18 349.86C392.565 347.899 393.431 346.064 394.7 344.52L429.37 352.74Z" fill="black"/>
<path d="M433.58 348.93C432.16 352.93 429.98 357.62 429.98 357.62C429.98 357.62 418.72 359.14 410.8 354.27C402.88 349.4 390.1 348.79 390.1 348.79C392.17 347.52 393.57 343.66 394.44 340.28C394.926 338.369 395.306 336.433 395.58 334.48C395.58 334.48 433.02 342.09 434.58 343.31C435.16 343.79 434.54 346.21 433.58 348.93Z" fill="#E6E6F0"/>
<path d="M500.3 220.62L454.89 248.03L450.38 250.75V237.36L453.51 235.86L491.78 217.57C491.78 217.57 493.61 184.39 498.48 189.57C503.35 194.75 500.3 220.62 500.3 220.62Z" fill="#FDC2CC"/>
<path opacity="0.1" d="M454.89 248.03L450.38 250.75V237.36L453.51 235.86C453.717 239.941 454.178 244.006 454.89 248.03Z" fill="black"/>
<path d="M419.94 252.93L452.51 234.06C452.51 234.06 453.12 252.33 456.77 255.06C456.77 255.06 443.38 259.06 438.2 267.54L419.94 252.93Z" fill="#B45181"/>
<path opacity="0.1" d="M419.94 252.93L452.51 234.06C452.51 234.06 453.12 252.33 456.77 255.06C456.77 255.06 443.38 259.06 438.2 267.54L419.94 252.93Z" fill="black"/>
<path d="M500.01 269.02C500.01 269.02 484.52 275.77 474.26 278.25C471.951 278.946 469.537 279.224 467.13 279.07C460.13 277.85 468.96 269.07 468.96 269.07L472.64 268.5L492.4 265.42C492.4 265.42 494.53 234.98 498.18 237.42C501.83 239.86 500.01 269.02 500.01 269.02Z" fill="#FDC2CC"/>
<path d="M434.55 241.62C434.55 241.62 421.46 251.36 426.33 263.54C431.2 275.72 401.06 256.23 401.06 256.23C401.06 256.23 410.8 241.62 412.93 230.66C415.06 219.7 434.55 241.62 434.55 241.62Z" fill="#FDC2CC"/>
<path opacity="0.1" d="M433.58 348.93C427.918 346.798 422.001 345.419 415.98 344.83C407.18 343.83 399.12 342.14 394.45 340.28C394.936 338.369 395.316 336.433 395.59 334.48C395.59 334.48 433.03 342.09 434.59 343.31C435.16 343.79 434.54 346.21 433.58 348.93Z" fill="black"/>
<path opacity="0.1" d="M474.25 278.25C471.941 278.946 469.527 279.224 467.12 279.07C460.12 277.85 468.95 269.07 468.95 269.07L472.63 268.5C474.17 270.87 475.74 274.57 474.25 278.25Z" fill="black"/>
<path d="M413.24 247.1C413.24 247.1 401.37 246.8 397.11 251.67C392.85 256.54 393.76 269.67 393.76 269.67C393.76 269.67 392.87 295.96 399.54 310.67C399.76 311.145 399.785 311.687 399.61 312.18C399.54 312.36 399.54 312.25 399.54 312.25C399.54 312.25 395.28 331.43 391.02 334.78C386.76 338.13 400.15 342.09 416.02 343.91C431.89 345.73 438.24 350.3 438.24 350.3C438.24 350.3 440.98 347.3 441.24 340.56C441.5 333.82 437.01 284.85 437.01 284.85C437.01 284.85 453.75 289.11 463.8 283.94C463.8 283.94 468.37 286.38 472.63 279.68C476.89 272.98 469.63 265.68 469.63 265.68C469.63 265.68 462.93 272.38 444.36 263.55C425.79 254.72 419.01 246.8 413.24 247.1Z" fill="#B45181"/>
<path d="M322.22 424.28H318.57V429.46L322.22 437.68C322.22 437.68 327.09 438.59 327.4 438.59C327.71 438.59 331.66 437.68 331.66 437.68L332.88 435.55C332.88 435.55 319.48 430.36 322.22 424.28Z" fill="#E6E6F0"/>
<path d="M436.68 429.15L431.2 441.33L454.34 452.33L472.61 452.94C472.61 452.94 474.13 448.68 468.04 446.55L463.17 445.64C463.17 445.64 456.78 434.07 456.17 428.64C456.17 428.64 450.08 429.86 449.17 434.42C449.16 434.32 440.64 438.58 436.68 429.15Z" fill="#B45181"/>
<path d="M319.48 423.06L317.62 424.58L309.44 431.28L328.31 456.28C328.31 456.28 338.96 460.85 343.84 456.28C343.84 456.28 346.84 453.28 340.19 450.8C340.19 450.8 335.01 451.71 335.01 446.54C335.01 441.37 336.23 435.89 338.01 434.67C338.01 434.67 333.44 433.15 332.23 434.37C331.299 435.396 330.481 436.519 329.79 437.72C329.79 437.72 318.87 433.41 319.48 423.06Z" fill="#B45181"/>
<path opacity="0.1" d="M412.33 231.27C412.021 232.814 411.613 234.337 411.11 235.83C412.691 239.634 415.693 242.671 419.478 244.298C423.263 245.924 427.532 246.011 431.38 244.54C432.183 243.712 433.041 242.94 433.95 242.23C433.95 242.23 414.46 220.31 412.33 231.27Z" fill="black"/>
<path opacity="0.1" d="M410.65 271.93C410.65 271.93 420.09 284.41 433.79 284.72Z" fill="black"/>
<g opacity="0.1">
<path opacity="0.1" d="M467.07 284.15C466.878 284.096 466.69 284.026 466.51 283.94C466.217 284.093 465.917 284.237 465.61 284.37C466.104 284.36 466.595 284.286 467.07 284.15Z" fill="black"/>
<path opacity="0.1" d="M470.31 266.93C469.979 266.505 469.625 266.097 469.25 265.71C469.25 265.71 467.25 267.71 462.31 268.09C465.031 268.36 467.777 267.962 470.31 266.93V266.93Z" fill="black"/>
<path opacity="0.1" d="M439.72 284.85L439.78 285.5C443.796 286.244 447.877 286.579 451.96 286.5C447.836 286.35 443.737 285.797 439.72 284.85V284.85Z" fill="black"/>
<path opacity="0.1" d="M418.72 343.93C402.89 342.1 389.5 338.15 393.72 334.8C397.94 331.45 402.24 312.27 402.24 312.27C402.24 312.27 402.24 312.38 402.31 312.2C402.485 311.707 402.46 311.165 402.24 310.69C395.57 295.94 396.46 269.69 396.46 269.69C396.46 269.69 395.55 256.6 399.81 251.69C402.98 248.06 410.37 247.31 413.94 247.16C413.607 247.134 413.273 247.134 412.94 247.16C412.94 247.16 401.07 246.86 396.81 251.73C392.55 256.6 393.46 269.73 393.46 269.73C393.46 269.73 392.57 296.02 399.24 310.73C399.46 311.205 399.485 311.747 399.31 312.24C399.24 312.42 399.24 312.31 399.24 312.31C399.24 312.31 395.01 331.43 390.71 334.78C386.41 338.13 399.84 342.09 415.71 343.91C431.58 345.73 437.93 350.3 437.93 350.3C438.249 349.918 438.53 349.506 438.77 349.07C435.68 347.58 429.32 345.13 418.72 343.93Z" fill="black"/>
</g>
<path d="M426.33 244.97C435.073 244.97 442.16 237.883 442.16 229.14C442.16 220.397 435.073 213.31 426.33 213.31C417.587 213.31 410.5 220.397 410.5 229.14C410.5 237.883 417.587 244.97 426.33 244.97Z" fill="#FDC2CC"/>
<path opacity="0.1" d="M448.86 222.06C447.55 225.34 443.64 226.58 440.21 227.43C435.31 228.63 430.03 229.81 425.34 227.95C424.732 227.609 424.031 227.472 423.34 227.56C422.783 227.783 422.318 228.189 422.02 228.71C416.85 236.07 417.69 245.88 416.35 254.78C415.93 257.55 415.22 260.41 413.35 262.48C409.71 266.48 402.84 266.33 399.49 270.58C397.28 273.38 397.26 277.27 397.28 280.84C397.28 284.647 397.247 288.457 397.18 292.27C397.12 294.77 397 297.36 395.87 299.58C393.95 303.34 389.67 305.13 385.72 306.58C383.26 307.5 380.72 308.43 378.08 308.18C375.44 307.93 372.8 306.18 372.46 303.54C371.99 299.96 375.68 297.46 378.22 294.88C382.28 290.77 383.95 284.79 384.1 279.01C384.243 276.676 383.902 274.337 383.1 272.14C382.17 269.87 380.51 267.96 379.51 265.72C376.43 258.82 380.23 250.84 384.78 244.8C389.33 238.76 394.92 232.87 395.89 225.38C395.975 223.759 396.206 222.149 396.58 220.57C397.28 218.39 398.94 212.37 400.77 210.99C403.7 208.783 407.139 207.352 410.77 206.83C413.58 206.42 416.45 206.57 419.24 206.03C422.5 205.4 425.53 203.85 428.79 203.27C435.84 202.02 443.49 210.21 446.58 216.67C447.43 218.65 449.66 220.05 448.86 222.06Z" fill="black"/>
<path d="M448.86 221.45C447.55 224.73 443.64 225.97 440.21 226.82C435.31 228.02 430.03 229.2 425.34 227.34C424.732 226.999 424.031 226.862 423.34 226.95C422.783 227.173 422.318 227.579 422.02 228.1C416.85 235.46 417.69 245.27 416.35 254.17C415.93 256.94 415.22 259.8 413.35 261.87C409.71 265.87 402.84 265.72 399.49 269.97C397.28 272.77 397.26 276.66 397.28 280.23C397.28 284.037 397.247 287.847 397.18 291.66C397.12 294.16 397 296.75 395.87 298.97C393.95 302.73 389.67 304.52 385.72 305.97C383.26 306.89 380.72 307.82 378.08 307.57C375.44 307.32 372.8 305.57 372.46 302.93C371.99 299.35 375.68 296.85 378.22 294.27C382.28 290.16 383.95 284.18 384.1 278.4C384.243 276.066 383.902 273.727 383.1 271.53C382.17 269.26 380.51 267.35 379.51 265.11C376.43 258.21 380.23 250.23 384.78 244.19C389.33 238.15 394.92 232.26 395.89 224.77C395.975 223.149 396.206 221.539 396.58 219.96C397.28 217.78 398.94 211.76 400.77 210.38C403.7 208.173 407.139 206.742 410.77 206.22C413.58 205.81 416.45 205.96 419.24 205.42C422.5 204.79 425.53 203.24 428.79 202.66C435.84 201.41 443.49 209.6 446.58 216.06C447.43 218.04 449.66 219.44 448.86 221.45Z" fill="#F569BC"/>
<path d="M877.2 599.978C877.2 599.978 866.93 600.698 860.59 589.698C859.351 587.483 857.886 585.402 856.22 583.488C854.173 580.131 853.11 576.268 853.15 572.338C853.5 564.188 845 519.548 845 519.548C845 519.548 846.06 502.547 837.56 491.917C831.96 484.917 823.91 464.918 819.06 451.998C819.385 452.288 819.777 452.494 820.2 452.598L820 451.488H820.2L817.69 437.698C814.036 433.497 810.955 428.829 808.53 423.818L809.1 423.698L816.62 422.118C816.62 422.118 828.84 404.748 829.62 396.208H830.62H832.03C843.341 396.146 854.647 396.737 865.89 397.978V397.978C865.89 397.928 865.81 397.708 865.71 397.358C865.234 395.639 864.867 393.892 864.61 392.128H865.31L872.31 391.668C872.31 391.668 896.4 364.748 887.54 359.788C878.68 354.828 869.47 382.108 869.47 382.108L866.47 382.648L865.66 382.798C865.74 382.678 865.82 382.568 865.91 382.458C866 382.348 826.59 380.698 820.52 371.118C820.52 371.118 803.16 357.298 802.45 348.118C802.322 346.213 801.672 344.381 800.572 342.821C799.471 341.262 797.962 340.036 796.21 339.278C794.065 338.254 791.69 337.809 789.32 337.988L781.19 338.548L781.76 339.548H781.53C781.02 338.379 780.592 337.176 780.25 335.948H780.42C780.36 335.698 780.31 335.448 780.26 335.198C782.752 334.61 785.1 333.528 787.166 332.017C789.232 330.505 790.973 328.594 792.287 326.397C793.601 324.2 794.461 321.762 794.815 319.226C795.169 316.691 795.011 314.111 794.35 311.638C795.145 311.74 795.952 311.716 796.74 311.568C799.74 310.958 801.85 307.918 801.93 304.878C801.93 304.678 801.93 304.478 801.93 304.288C801.93 304.288 801.93 304.208 801.93 304.168C801.9 302.64 801.53 301.138 800.847 299.772C800.163 298.405 799.184 297.208 797.98 296.268C796.36 294.918 794.42 293.958 792.98 292.458C791.23 290.668 790.27 288.268 788.91 286.158C786.632 282.667 783.253 280.038 779.31 278.688C776.38 277.688 772.78 277.588 770.53 279.688C769.37 280.778 768.7 282.358 767.4 283.278C765.53 284.618 762.99 284.218 760.7 284.488C758.626 284.807 756.663 285.631 754.984 286.889C753.304 288.146 751.96 289.798 751.07 291.698C749.947 294.077 749.406 296.688 749.49 299.318C749.465 301.121 749.68 302.92 750.13 304.668C750.57 306.408 751.22 308.088 751.7 309.828C752.7 313.428 752.93 317.218 754.08 320.768C754.853 323.402 756.395 325.746 758.51 327.498L758.17 328.958C757.95 328.958 752.43 330.188 748.62 338.518C745.62 345.088 735.41 351.868 730.92 354.608C730.083 355.12 729.356 355.794 728.782 356.591C728.209 357.388 727.8 358.291 727.58 359.248C727.149 361.18 726.957 363.158 727.01 365.138C726.93 369.408 727.82 375.318 731.25 382.808C739.04 399.808 744.71 407.248 744.71 407.248C744.71 407.248 745.14 412.458 745.17 417.948C745.17 422.038 744.87 426.108 744 428.148C743.26 429.868 743 434.258 743.06 439.278C743.06 448.898 744 461.448 744 461.448C744 461.448 746.71 461.968 750.9 462.578L753.51 508.498C753.838 514.059 752.052 519.538 748.51 523.838C746.679 526.099 744.565 528.115 742.22 529.838C734.78 535.148 718.84 591.128 718.84 591.128C718.84 591.128 719.62 591.128 720.9 591.278L716 604.948C716 604.948 735.58 619.948 747.49 615.848C748.78 615.427 750.134 615.238 751.49 615.288C753.84 615.288 758.87 613.428 756.07 610.978C750.663 605.998 745.564 600.695 740.8 595.098C741.183 595.285 741.551 595.502 741.9 595.748V595.638L742.07 595.748C742.07 595.748 742.07 595.198 742.2 594.298L742.03 594.238C742.39 590.558 743.53 581.238 745.79 580.158C748.62 578.738 769.53 537.288 769.53 537.288L790.43 483.438C790.43 483.438 807.08 512.138 821.25 517.088V529.088C821.25 529.088 829.04 564.518 831.88 568.408C834.72 572.298 831.88 587.888 831.88 587.888C832.44 588.529 833.082 589.094 833.79 589.568L831.52 602.408C831.52 602.408 847.82 601.698 875.45 610.198C875.43 610.248 886.06 605.648 877.2 599.978ZM812.02 414.698L808.57 415.558L807.89 415.728C807.82 415.298 807.77 415.048 807.77 415.048C806.978 415.405 806.127 415.612 805.26 415.658C804.037 411.784 803.331 407.766 803.16 403.708C801.999 398.85 801.293 393.896 801.05 388.908C801.05 386.328 801.48 384.078 802.45 382.808L803.6 382.898L804.4 383.658L804.46 383.708L804.87 384.078L805.3 384.458L805.37 384.518L805.83 384.928L805.91 384.998L806.38 385.398L806.91 385.838L807.03 385.938L807.59 386.388L808.14 386.828L808.27 386.928L808.88 387.388L809.01 387.478L809.59 387.908L809.69 387.978L810.35 388.448L810.51 388.558L811.21 389.038H811.27L811.95 389.488L812.11 389.598L812.84 390.068L813 390.168L813.68 390.588L813.81 390.668L814.59 391.128L814.78 391.238L815.59 391.688H815.65L816.44 392.108L816.63 392.208L817.47 392.628L817.64 392.708L818.42 393.068L818.57 393.138L819.45 393.518L819.66 393.608L820.57 393.978C814.92 400.198 812.02 414.698 812.02 414.698Z" fill="url(#paint0_linear)"/>
<path d="M724.64 582.858L718.07 601.188C718.07 601.188 736.07 614.988 747.77 612.128C749.533 611.689 751.329 611.398 753.14 611.258C755.56 611.078 759.73 609.308 757.14 607.068C748.84 599.808 737.77 586.318 737.77 586.318L724.64 582.858Z" fill="#4F4D59"/>
<path d="M833.93 581.128L830.82 598.768C830.82 598.768 846.73 598.078 873.71 606.378C873.71 606.378 884.09 601.878 875.44 596.378C875.44 596.378 865.44 597.068 859.19 586.378C852.94 575.688 849.19 577.038 849.19 577.038L833.93 581.128Z" fill="#4F4D59"/>
<path d="M751.59 453.168L754.59 506.848C754.919 512.567 753.023 518.193 749.3 522.548C747.618 524.547 745.7 526.337 743.59 527.878C736.33 533.068 720.76 587.708 720.76 587.708C720.76 587.708 738.4 588.708 743.24 592.208C743.24 592.208 744.24 578.378 747.04 576.988C749.84 575.598 770.21 535.138 770.21 535.138L790.62 482.568C790.62 482.568 806.87 510.568 820.71 515.428V527.188C820.71 527.188 828.32 561.778 831.09 565.578C833.86 569.378 831.09 584.578 831.09 584.578C831.09 584.578 839.09 594.578 857.37 583.888C857.37 583.888 851.49 577.318 851.84 569.358C852.19 561.398 843.84 517.828 843.84 517.828C843.84 517.828 844.84 501.228 836.58 490.828C828.32 480.428 814.59 440.698 814.59 440.698L805.07 420.218L751.59 453.168Z" fill="#C48C96"/>
<g opacity="0.1">
<path opacity="0.1" d="M725.54 587.93C725.54 587.93 741.1 533.29 748.37 528.1C750.6 526.465 752.616 524.557 754.37 522.42C757.919 518.124 759.706 512.642 759.37 507.08L756.32 453.39L807.32 421.95L806.63 420.46L753.21 453.4L756.26 507.09C756.596 512.652 754.809 518.134 751.26 522.43C749.506 524.567 747.49 526.475 745.26 528.11C738.01 533.29 722.43 587.93 722.43 587.93C722.43 587.93 740.07 588.93 744.91 592.43C744.91 592.43 744.91 591.89 745.04 591.02C738.23 588.68 725.54 587.93 725.54 587.93Z" fill="black"/>
<path opacity="0.1" d="M835.87 584.82C835.87 584.82 838.64 569.6 835.87 565.82C833.1 562.04 825.49 527.43 825.49 527.43V515.65C811.66 510.81 795.4 482.79 795.4 482.79L794.2 485.93C798.89 493.37 811.4 511.83 822.39 515.67V527.43C822.39 527.43 830 562.02 832.77 565.82C835.54 569.62 832.77 584.82 832.77 584.82C832.77 584.82 836.63 589.68 845.15 589.02C838.78 588.49 835.87 584.82 835.87 584.82Z" fill="black"/>
</g>
<path d="M872.01 393.22L865.22 393.67L861.64 393.91V385.26L866.34 384.41L869.25 383.88C869.25 383.88 878.25 357.25 886.89 362.09C895.53 366.93 872.01 393.22 872.01 393.22Z" fill="#714B4F"/>
<path d="M763.07 321.93C763.07 321.93 758.57 339.22 757.19 349.93C755.81 360.64 789.35 352.01 789.35 352.01C789.35 352.01 776.55 336.45 783.82 328.15L763.07 321.93Z" fill="#714B4F"/>
<path d="M797.96 393.698L798.65 400.268L787.93 399.578L777.21 390.238L766.49 360.138L759.59 349.408L754.4 342.838L756.48 334.838C756.48 334.838 757.43 335.668 759.03 336.888C764.3 340.888 776.65 349.298 785.68 346.978C786.097 346.872 786.508 346.742 786.91 346.588L800.4 369.758L797.96 393.698Z" fill="#E6E6F0"/>
<path opacity="0.1" d="M760.65 333.04C760.65 333.04 755.12 334.04 751.31 342.38C748.39 348.76 738.51 355.38 734.1 358.05C733.259 358.564 732.529 359.241 731.953 360.041C731.378 360.841 730.969 361.749 730.75 362.71C729.86 366.65 729.52 374 734.36 384.57C741.97 401.17 747.5 408.43 747.5 408.43C747.5 408.43 748.88 425.03 746.81 429.87C744.74 434.71 746.81 461.34 746.81 461.34C746.81 461.34 783.12 468.26 795.23 461.34C807.34 454.42 805.61 427.79 805.61 427.79C805.61 427.79 817.02 452 821.17 452.69L818.75 439.2C818.75 439.2 805.26 424.67 804.57 406C804.57 406 800.42 389.05 803.88 384.56C803.88 384.56 862.33 389.4 865.79 385.25C865.79 385.25 827.4 383.52 821.52 374.18C821.52 374.18 804.57 360.69 803.88 351.7C803.779 350.012 803.25 348.378 802.342 346.952C801.434 345.526 800.177 344.355 798.69 343.55C796.338 342.212 793.638 341.609 790.94 341.82L783.13 342.36C783.13 342.36 796.62 366.22 795.93 369.36C795.24 372.5 796.62 397.72 796.62 397.72C796.62 397.72 781.01 364.17 774.14 360.37C767.27 356.57 759.26 340.93 759.26 340.93L760.64 333.03" fill="black"/>
<path opacity="0.1" d="M799.38 393.93L800.07 400.5L789.35 399.81L778.63 390.47L767.91 360.37L761.01 349.64L755.82 343.07L757.9 335.07C757.9 335.07 758.85 335.9 760.45 337.12L759.97 339.85C759.97 339.85 767.97 355.47 774.84 359.28C781.71 363.09 797.32 396.63 797.32 396.63C797.32 396.63 795.94 371.38 796.63 368.27C797.1 366.16 791.04 354.5 787.1 347.21C787.517 347.105 787.928 346.975 788.33 346.82L801.82 369.99L799.38 393.93Z" fill="black"/>
<path opacity="0.1" d="M865.22 393.67L861.64 393.91V385.26L866.34 384.41C864.7 386.58 864.76 390.42 865.22 393.67Z" fill="black"/>
<path d="M759.23 331.778C759.23 331.778 753.7 332.778 749.89 341.118C746.97 347.498 737.09 354.118 732.68 356.788C731.839 357.301 731.109 357.978 730.534 358.779C729.958 359.579 729.549 360.486 729.33 361.448C728.44 365.388 728.1 372.738 732.94 383.308C740.55 399.908 746.08 407.168 746.08 407.168C746.08 407.168 747.46 423.768 745.39 428.608C743.32 433.448 745.39 460.078 745.39 460.078C745.39 460.078 781.7 466.998 793.81 460.078C805.92 453.158 804.19 426.528 804.19 426.528C804.19 426.528 815.59 450.698 819.75 451.438L817.33 437.948C817.33 437.948 803.84 423.418 803.15 404.748C803.15 404.748 799 387.798 802.46 383.308C802.46 383.308 815.95 397.838 831.17 397.488C842.261 397.421 853.346 397.998 864.37 399.218C864.37 399.218 860.91 388.148 864.37 383.998C864.37 383.998 825.98 382.268 820.1 372.928C820.1 372.928 803.15 359.438 802.46 350.448C802.359 348.76 801.83 347.126 800.922 345.7C800.014 344.273 798.757 343.103 797.27 342.298C794.918 340.959 792.218 340.357 789.52 340.568L781.71 341.108C781.71 341.108 795.2 364.968 794.51 368.108C793.82 371.248 795.2 396.468 795.2 396.468C795.2 396.468 779.59 362.898 772.72 359.098C765.85 355.298 757.84 339.698 757.84 339.698L759.22 331.798" fill="#C48C96"/>
<path opacity="0.1" d="M751.59 368.088C751.59 368.088 759.89 396.088 764.73 399.558C769.57 403.028 798.97 420.658 807.62 416.508C807.62 416.508 809.7 426.888 806.62 429.308C806.62 429.308 774.37 428.048 774.11 427.928C774.11 427.928 753.01 425.158 749.55 414.788C746.09 404.418 741.94 386.788 741.94 386.788L751.59 368.088Z" fill="black"/>
<path d="M797.31 399.97C797.978 399.97 798.52 399.195 798.52 398.24C798.52 397.285 797.978 396.51 797.31 396.51C796.642 396.51 796.1 397.285 796.1 398.24C796.1 399.195 796.642 399.97 797.31 399.97Z" fill="#BA7855"/>
<path d="M800.76 412.07C801.428 412.07 801.97 411.295 801.97 410.34C801.97 409.385 801.428 408.61 800.76 408.61C800.092 408.61 799.55 409.385 799.55 410.34C799.55 411.295 800.092 412.07 800.76 412.07Z" fill="#BA7855"/>
<g opacity="0.1">
<path opacity="0.1" d="M749.24 459.93C749.24 459.93 747.16 433.3 749.24 428.46C751.32 423.62 749.93 407.02 749.93 407.02C749.93 407.02 744.4 399.76 736.79 383.16C731.94 372.59 732.29 365.24 733.18 361.3C733.399 360.339 733.808 359.431 734.383 358.631C734.959 357.831 735.689 357.154 736.53 356.64C740.94 353.94 750.81 347.35 753.74 340.97C755.89 336.29 758.58 333.92 760.52 332.74L760.65 331.98C760.65 331.98 755.12 332.98 751.31 341.32C748.39 347.7 738.51 354.32 734.1 356.99C733.259 357.504 732.529 358.181 731.953 358.981C731.378 359.781 730.969 360.689 730.75 361.65C729.86 365.59 729.52 372.94 734.36 383.51C741.97 400.11 747.5 407.37 747.5 407.37C747.5 407.37 748.88 423.97 746.81 428.81C744.74 433.65 746.81 460.28 746.81 460.28C746.81 460.28 772.75 465.22 788.09 462.57C772.6 464.42 749.24 459.93 749.24 459.93Z" fill="black"/>
<path opacity="0.1" d="M795.92 368.32C795.45 370.45 795.92 382.98 796.31 390.66C797.98 394.07 799.03 396.34 799.03 396.34C799.03 396.34 797.65 371.09 798.34 367.98C799 364.98 786.85 343.32 785.64 341.18L783.12 341.35C783.12 341.35 796.62 365.21 795.92 368.32Z" fill="black"/>
<path opacity="0.1" d="M835.01 397.37C819.79 397.72 806.3 383.19 806.3 383.19C805.895 383.753 805.6 384.388 805.43 385.06C809.43 388.78 820.43 397.99 832.59 397.71C843.681 397.643 854.766 398.221 865.79 399.44C865.79 399.44 865.72 399.21 865.61 398.82C855.445 397.769 845.229 397.285 835.01 397.37Z" fill="black"/>
<path opacity="0.1" d="M808.01 426.42C808.01 426.42 808.15 428.58 808.07 431.82C811.67 438.96 818.22 451.17 821.15 451.66L820.64 448.82C815.61 442.5 808.01 426.42 808.01 426.42Z" fill="black"/>
</g>
<path d="M817.71 422.93L810.36 424.48L804.56 425.7L807.67 417.05L809.84 416.51L813.21 415.67C813.21 415.67 818.05 391.46 827.74 393.19C837.43 394.92 817.71 422.93 817.71 422.93Z" fill="#714B4F"/>
<path opacity="0.1" d="M810.37 424.51L804.57 425.73L807.68 417.08L809.85 416.54C810.331 419.168 810.505 421.842 810.37 424.51Z" fill="black"/>
<path d="M753.01 367.63C753.01 367.63 761.31 395.63 766.15 399.1C770.99 402.57 800.39 420.2 809.04 416.05C809.04 416.05 811.12 426.43 808.04 428.85C808.04 428.85 775.79 427.59 775.53 427.47C775.53 427.47 754.43 424.7 750.97 414.33C747.51 403.96 743.36 386.33 743.36 386.33L753.01 367.63Z" fill="#C48C96"/>
<path opacity="0.1" d="M763.41 322.67C763.41 322.67 762.71 325.38 761.77 329.32C763.685 332.948 766.741 335.844 770.466 337.561C774.191 339.278 778.378 339.72 782.38 338.82C781.55 335.27 781.73 331.68 784.16 328.9L763.41 322.67Z" fill="black"/>
<path d="M776.52 338.348C786.837 338.348 795.2 329.984 795.2 319.668C795.2 309.351 786.837 300.988 776.52 300.988C766.203 300.988 757.84 309.351 757.84 319.668C757.84 329.984 766.203 338.348 776.52 338.348Z" fill="#714B4F"/>
<path opacity="0.1" d="M792.74 314.528C794.093 314.905 795.51 314.994 796.9 314.788C798.339 314.398 799.612 313.55 800.525 312.371C801.438 311.193 801.942 309.748 801.96 308.258C801.934 306.767 801.574 305.301 800.908 303.967C800.242 302.633 799.286 301.464 798.11 300.548C796.53 299.228 794.64 298.298 793.19 296.828C791.48 295.078 790.54 292.738 789.19 290.678C786.966 287.271 783.669 284.705 779.82 283.388C776.96 282.388 773.45 282.308 771.25 284.388C770.12 285.458 769.46 286.988 768.2 287.898C766.37 289.198 763.89 288.818 761.66 289.078C759.64 289.385 757.726 290.184 756.086 291.404C754.447 292.625 753.133 294.23 752.26 296.078C750.554 299.845 750.228 304.094 751.34 308.078C751.77 309.778 752.41 311.418 752.87 313.078C753.87 316.598 754.07 320.288 755.19 323.758C756.31 327.228 758.62 330.628 762.12 331.668C761.844 327.773 762.614 323.875 764.35 320.378C764.636 319.613 765.2 318.984 765.93 318.618C766.553 318.458 767.207 318.458 767.83 318.618C772.216 319.266 776.691 318.361 780.48 316.058C781.81 315.258 783.88 312.498 785.29 312.228C787.11 311.918 790.84 314.108 792.74 314.528Z" fill="black"/>
<path d="M792.74 313.838C794.093 314.215 795.51 314.304 796.9 314.098C798.339 313.708 799.612 312.86 800.525 311.681C801.438 310.503 801.942 309.058 801.96 307.568C801.934 306.077 801.574 304.611 800.908 303.277C800.242 301.942 799.286 300.774 798.11 299.858C796.53 298.538 794.64 297.608 793.19 296.138C791.48 294.388 790.54 292.048 789.19 289.988C786.966 286.581 783.669 284.015 779.82 282.698C776.96 281.698 773.45 281.618 771.25 283.698C770.12 284.768 769.46 286.298 768.2 287.208C766.37 288.508 763.89 288.128 761.66 288.388C759.64 288.695 757.726 289.494 756.086 290.714C754.447 291.935 753.133 293.54 752.26 295.388C750.554 299.155 750.228 303.404 751.34 307.388C751.77 309.088 752.41 310.728 752.87 312.388C753.87 315.908 754.07 319.598 755.19 323.068C756.31 326.538 758.62 329.938 762.12 330.978C761.852 327.084 762.629 323.19 764.37 319.698C764.656 318.933 765.22 318.304 765.95 317.938C766.573 317.778 767.227 317.778 767.85 317.938C772.236 318.586 776.711 317.681 780.5 315.378C781.83 314.578 783.9 311.818 785.31 311.548C787.11 311.228 790.84 313.418 792.74 313.838Z" fill="#503F43"/>
<path d="M366.73 378.44C364.78 372.73 361.97 365.44 359.73 363.78C359.595 363.672 359.447 363.581 359.29 363.51H359.01V356.46L353.75 357.3C352.906 354.752 352.267 352.14 351.84 349.49C352.347 349.997 352.992 350.343 353.695 350.483C354.398 350.624 355.127 350.553 355.79 350.28C355.7 350.14 355.63 349.99 355.55 349.84L355.79 349.74C354.962 348.279 354.525 346.629 354.52 344.95C354.564 343.418 354.809 341.898 355.25 340.43C356.19 337.18 357.78 334.14 358.67 330.88C359.239 328.775 359.508 326.6 359.47 324.42C359.497 320.726 358.654 317.078 357.01 313.77C356.602 312.818 355.963 311.982 355.15 311.34C354.41 310.93 353.649 310.559 352.87 310.23C351.566 309.351 350.442 308.231 349.56 306.93C345.824 302.382 340.823 299.044 335.19 297.34C333.723 296.795 332.134 296.671 330.6 296.98C327.07 297.98 325.78 302.31 322.92 304.6C320.39 306.6 316.92 306.83 313.76 307.51C310.516 308.062 307.53 309.627 305.23 311.98C303.735 313.689 302.92 315.889 302.94 318.16C302.854 319.22 303.041 320.284 303.484 321.25C303.927 322.217 304.611 323.053 305.47 323.68C306.448 324.323 307.555 324.741 308.714 324.905C309.872 325.07 311.052 324.976 312.17 324.63C311.297 327.646 311.056 330.81 311.464 333.924C311.871 337.037 312.917 340.033 314.537 342.723C316.157 345.413 318.315 347.739 320.876 349.556C323.437 351.373 326.346 352.64 329.42 353.28L330.04 354.38C331.931 357.907 333.366 361.661 334.31 365.55C329.47 368.3 324.18 370.87 320.99 371.11C320.863 372.357 320.633 373.591 320.3 374.8C319.555 377.835 318.121 380.658 316.11 383.05C311.77 387.93 292.24 424.83 292.24 424.83C292.24 424.83 291.62 426.3 290.62 428.83C278.49 430.32 258.7 432.47 253.17 431.36L231.47 410.74C231.47 410.74 224.47 416.09 225.07 422.59L221.16 418.87C221.16 418.87 200.54 434.6 233.1 444.87L282.64 450.62C277.92 464.86 273.52 481.43 274.88 490.45H275.29C276.238 490.448 277.184 490.375 278.12 490.23L278.03 491.83L273.26 577.26C273.26 577.26 272.17 592.99 286.82 600.05C286.82 600.05 304.73 652.68 297.67 658.65C297.67 658.65 298.51 659.09 299.92 659.71L285.19 672.71C285.19 672.71 274.34 675.42 268.37 674.88C267.321 674.737 266.256 674.985 265.378 675.577C264.5 676.169 263.871 677.064 263.61 678.09C263.61 678.2 263.61 678.31 263.55 678.43V678.57C263.55 678.68 263.55 678.8 263.55 678.92C263.55 679.04 263.55 679.01 263.55 679.05C263.55 679.09 263.55 679.25 263.55 679.35V679.48C263.55 679.6 263.55 679.71 263.62 679.83V679.96C263.653 680.087 263.693 680.21 263.74 680.33V680.45C263.79 680.57 263.85 680.69 263.91 680.81V680.89C263.98 681.01 264.05 681.13 264.13 681.25L264.2 681.35C264.287 681.477 264.383 681.603 264.49 681.73L264.57 681.83C264.68 681.96 264.8 682.08 264.93 682.21H264.99L265.39 682.55L265.48 682.62L265.97 682.97L266.09 683.05L266.66 683.38H266.75L267.36 683.68H267.45L268.16 683.97L268.31 684.03L269.1 684.29H269.23L270.08 684.51H270.15L271.15 684.7H271.34L272.34 684.85H272.53L273.68 684.96C275.91 685.13 278.92 685.19 282.4 685.18C282.4 685.18 282.4 685.27 282.4 685.31C282.4 685.35 282.4 685.51 282.4 685.61V685.74C282.4 685.86 282.4 685.97 282.47 686.09V686.22C282.503 686.347 282.543 686.47 282.59 686.59V686.71C282.64 686.83 282.7 686.95 282.76 687.07V687.15C282.83 687.27 282.9 687.39 282.98 687.51L283.05 687.61C283.137 687.737 283.233 687.863 283.34 687.99L283.42 688.09C283.53 688.22 283.65 688.34 283.78 688.47H283.83L284.23 688.81L284.32 688.88L284.81 689.23L284.93 689.31L285.49 689.64H285.58L286.19 689.94H286.28L286.99 690.23L287.14 690.29L287.93 690.55H288.06L288.91 690.77H288.98L289.98 690.96H290.17L291.17 691.11H291.36L292.51 691.22C306.62 692.31 351.65 689.05 351.65 689.05V688.92V688.76C352.1 686.66 354.26 674.45 346.58 665.42C346.81 665.18 347.03 664.93 347.24 664.67C347.24 664.67 341.24 654.36 344.53 651.11C347.82 647.86 328.64 591.93 328.64 591.93C328.64 591.93 318.33 575.65 324.3 557.2C330.27 538.75 323.76 518.68 323.76 518.68C323.76 518.68 338.01 514.46 338.27 496.93C338.27 496.4 338.27 495.85 338.27 495.3C338.568 495.343 338.869 495.363 339.17 495.36C339.37 495.374 339.57 495.374 339.77 495.36C339.77 495.36 337.06 485.59 340.31 478.54C343.56 471.49 350.62 478 357.13 449.24C361.84 428.43 365.98 404.5 367.92 392.85C368.717 388.022 368.308 383.072 366.73 378.44V378.44ZM242.91 439.44L237.96 434.74C239.6 435.42 241.42 436.08 243.45 436.74L262.1 438.93C253.78 439.68 246.01 440.1 242.91 439.47V439.44Z" fill="url(#paint1_linear)"/>
<path d="M290.14 436.7C290.14 436.7 251.76 442.03 243.76 440.43L222.44 420.17C222.44 420.17 202.18 435.63 234.17 445.76L293.87 452.69L290.14 436.7Z" fill="#FDC2CC"/>
<path opacity="0.05" d="M290.14 436.7C290.14 436.7 251.76 442.03 243.76 440.43L222.44 420.17C222.44 420.17 202.18 435.63 234.17 445.76L293.87 452.69L290.14 436.7Z" fill="black"/>
<path d="M304.01 653.12L285.35 669.64C285.35 669.64 274.69 672.31 268.83 671.77C262.97 671.23 260.3 680.83 274.16 681.9C288.02 682.97 332.26 679.77 332.26 679.77C332.26 679.77 336.52 662.71 323.73 653.12H304.01Z" fill="#47465A"/>
<path opacity="0.05" d="M304.01 653.12L285.35 669.64C285.35 669.64 274.69 672.31 268.83 671.77C262.97 671.23 260.3 680.83 274.16 681.9C288.02 682.97 332.26 679.77 332.26 679.77C332.26 679.77 336.52 662.71 323.73 653.12H304.01Z" fill="black"/>
<path opacity="0.3" d="M332.92 672.4C332.888 674.344 332.664 676.28 332.25 678.18C332.25 678.18 288.01 681.38 274.15 680.31C267.48 679.8 264.65 677.31 264.15 674.93C263.54 677.67 265.96 681.28 274.15 681.93C288.01 683 332.25 679.8 332.25 679.8C332.771 677.369 332.996 674.885 332.92 672.4Z" fill="white"/>
<path d="M325.85 350.93C325.85 350.93 337.58 367.45 333.31 378.65C329.04 389.85 355.7 366.92 355.7 366.92C355.7 366.92 347.17 351.93 351.44 335.93L325.85 350.93Z" fill="#FDC2CC"/>
<path d="M322.65 659.52L304.01 676.04C304.01 676.04 293.35 678.71 287.49 678.17C281.63 677.63 278.96 687.23 292.82 688.3C306.68 689.37 350.92 686.17 350.92 686.17C350.92 686.17 355.18 669.11 342.39 659.52H322.65Z" fill="#47465A"/>
<path d="M328.01 655.79C325.23 659.22 321.31 660.54 317.21 660.74C307.89 661.18 297.63 655.79 297.63 655.79C304.56 649.93 286.97 598.22 286.97 598.22C272.58 591.29 273.64 575.83 273.64 575.83L278.3 491.93L279.48 470.85L294.41 461.79L306.17 470.79L317.33 479.35C318.057 482.073 318.526 484.859 318.73 487.67C320.03 507.26 304.54 511.87 304.54 511.87C304.54 511.87 310.94 531.59 305.07 549.72C299.2 567.85 309.33 583.84 309.33 583.84C309.33 583.84 328.52 639.28 325.33 642.48C322.14 645.68 328.01 655.79 328.01 655.79Z" fill="#565171"/>
<path opacity="0.05" d="M328.01 655.79C325.23 659.22 321.31 660.54 317.21 660.74C307.89 661.18 297.63 655.79 297.63 655.79C304.56 649.93 286.97 598.22 286.97 598.22C272.58 591.29 273.64 575.83 273.64 575.83L278.3 491.93L279.48 470.85L294.41 461.79L306.17 470.79L317.33 479.35C318.057 482.073 318.526 484.859 318.73 487.67C320.03 507.26 304.54 511.87 304.54 511.87C304.54 511.87 310.94 531.59 305.07 549.72C299.2 567.85 309.33 583.84 309.33 583.84C309.33 583.84 328.52 639.28 325.33 642.48C322.14 645.68 328.01 655.79 328.01 655.79Z" fill="black"/>
<path d="M346.64 662.18C337.58 673.37 316.26 662.18 316.26 662.18C316.689 661.784 317.01 661.285 317.19 660.73C321.1 650.1 304 599.28 304 599.28C289.61 592.35 288 575.83 288 575.83L284.23 490.41L283.74 479.35L306.17 470.79L313.06 468.16L336.01 485.75C336.995 489.394 337.48 493.155 337.45 496.93C337.16 514.14 323.19 518.3 323.19 518.3C323.19 518.3 329.59 538.02 323.72 556.15C317.85 574.28 328.01 590.22 328.01 590.22C328.01 590.22 347.2 645.66 344.01 648.86C340.82 652.06 346.64 662.18 346.64 662.18Z" fill="#565171"/>
<path opacity="0.1" d="M337.45 496.93C332.84 496.27 323.51 490.72 318.72 487.71C316.89 486.56 315.72 485.79 315.72 485.79C315.72 485.79 310.92 472.46 298.13 482.59C293.969 485.969 289.271 488.626 284.23 490.45C282.305 491.132 280.319 491.631 278.3 491.94L279.48 470.86L294.41 461.8L306.17 470.8L313.06 468.17L336.01 485.75C336.995 489.394 337.48 493.155 337.45 496.93V496.93Z" fill="black"/>
<path d="M366.3 394.64C364.4 406.08 360.3 429.64 355.7 450.03C349.3 478.28 342.37 471.88 339.18 478.81C335.99 485.74 338.65 495.33 338.65 495.33C333.32 495.86 315.73 484.14 315.73 484.14C315.73 484.14 310.93 470.81 298.14 480.94C285.35 491.07 275.22 490.53 275.22 490.53C272.55 472.94 292.28 426.03 292.28 426.03C292.28 426.03 311.47 389.78 315.73 385.03C317.707 382.682 319.116 379.91 319.85 376.93C320.177 375.744 320.405 374.533 320.53 373.31C327.46 372.78 344.53 361.05 344.53 361.05L357.86 358.92V365.85C358.018 365.921 358.166 366.011 358.3 366.12C360.49 367.79 363.3 374.91 365.17 380.52C366.701 385.062 367.089 389.912 366.3 394.64Z" fill="#E1A0A7"/>
<path d="M304.01 444.7L297.12 443.9L244.31 437.77C212.31 427.64 232.58 412.18 232.58 412.18L253.9 432.44C260.05 433.67 284.18 430.8 294.99 429.44C298.23 429.02 300.28 428.74 300.28 428.74L304.01 444.7Z" fill="#FDC2CC"/>
<path opacity="0.1" d="M355.7 372.74C355.7 372.74 341.84 361.55 321.01 397.79C300.18 434.03 295.42 428.17 295.42 428.17C295.42 428.17 299.68 444.17 297.55 447.36C297.55 447.36 311.94 446.29 317.27 447.36C322.6 448.43 355.65 406.85 355.65 406.85C355.65 406.85 372.76 383.4 355.7 372.74Z" fill="black"/>
<path opacity="0.1" d="M355.17 370.61C355.17 370.61 341.31 359.42 320.52 395.66C299.73 431.9 294.93 426.04 294.93 426.04C294.93 426.04 311.45 444.16 316.78 445.23C322.11 446.3 355.16 404.72 355.16 404.72C355.16 404.72 372.23 381.27 355.17 370.61Z" fill="black"/>
<path opacity="0.1" d="M297.11 443.93C297.33 439.98 295.84 433.04 294.98 429.44C298.22 429.02 300.27 428.74 300.27 428.74L304 444.74L297.11 443.93Z" fill="black"/>
<path d="M355.7 371.67C355.7 371.67 341.84 360.48 321.01 396.73C300.18 432.98 295.42 427.11 295.42 427.11C295.42 427.11 299.68 443.11 297.55 446.3C297.55 446.3 311.94 445.23 317.27 446.3C322.6 447.37 355.65 405.79 355.65 405.79C355.65 405.79 372.76 382.33 355.7 371.67Z" fill="#E1A0A7"/>
<path opacity="0.1" d="M352.01 337.02L326.38 351.93C327.465 353.503 328.466 355.132 329.38 356.81C330.855 357.11 332.355 357.26 333.86 357.26C340.69 357.26 343.86 350.09 347.99 345.26C347.69 341.42 350.83 341.32 352.01 337.02Z" fill="black"/>
<path d="M333.31 356.22C345.676 356.22 355.7 346.196 355.7 333.83C355.7 321.464 345.676 311.44 333.31 311.44C320.944 311.44 310.92 321.464 310.92 333.83C310.92 346.196 320.944 356.22 333.31 356.22Z" fill="#FDC2CC"/>
<path opacity="0.1" d="M305.01 315.72C307.268 313.404 310.202 311.864 313.39 311.32C316.5 310.65 319.91 310.45 322.39 308.46C325.2 306.21 326.46 301.93 329.93 300.97C331.438 300.668 332.999 300.793 334.44 301.33C339.975 303.003 344.89 306.282 348.56 310.75C349.429 312.032 350.535 313.135 351.82 314C352.585 314.324 353.333 314.687 354.06 315.09C354.856 315.723 355.482 316.544 355.88 317.48C358.378 322.526 358.954 328.31 357.5 333.75C356.63 336.96 355.07 339.94 354.14 343.14C353.21 346.34 352.98 349.96 354.67 352.82C353.03 353.66 350.96 352.6 349.93 351.07C348.9 349.54 348.59 347.66 348.05 345.89C346.988 342.415 344.988 339.301 342.27 336.89C340.59 335.41 337.59 334.41 336.42 336.32C335.97 337.06 336 338.01 335.61 338.78C334.85 340.29 332.61 340.59 331.18 339.78C329.772 338.808 328.782 337.34 328.41 335.67C326.22 328.24 322.47 323.57 314.53 326.74C311.53 327.92 308.08 328.74 305.23 326.74C301.58 324.06 302.31 318.75 305.01 315.72Z" fill="black"/>
<path d="M305.01 315.18C307.268 312.864 310.202 311.324 313.39 310.78C316.5 310.11 319.91 309.91 322.39 307.92C325.2 305.67 326.46 301.39 329.93 300.43C331.438 300.128 332.999 300.253 334.44 300.79C339.975 302.463 344.89 305.741 348.56 310.21C349.429 311.492 350.535 312.595 351.82 313.46C352.585 313.784 353.333 314.147 354.06 314.55C354.856 315.183 355.482 316.004 355.88 316.94C358.378 321.986 358.954 327.77 357.5 333.21C356.63 336.42 355.07 339.4 354.14 342.6C353.21 345.8 352.98 349.42 354.67 352.28C353.03 353.12 350.96 352.06 349.93 350.53C348.9 349 348.59 347.12 348.05 345.35C346.988 341.875 344.988 338.761 342.27 336.35C340.59 334.87 337.59 333.87 336.42 335.78C335.97 336.52 336 337.47 335.61 338.24C334.85 339.75 332.61 340.05 331.18 339.24C329.772 338.268 328.782 336.8 328.41 335.13C326.22 327.7 322.47 323.03 314.53 326.2C311.53 327.38 308.08 328.2 305.23 326.2C301.58 323.53 302.31 318.22 305.01 315.18Z" fill="#8F5A6A"/>
<path opacity="0.05" d="M358.27 366.08H347.44C347.44 366.08 326.12 376.74 325.59 376.21C325.23 375.85 321.93 376.47 319.84 376.9C320.167 375.714 320.395 374.504 320.52 373.28C327.45 372.75 344.52 361.02 344.52 361.02L357.85 358.89V365.82C358 365.889 358.141 365.976 358.27 366.08V366.08Z" fill="black"/>
<path opacity="0.3" d="M351.57 678.79C351.538 680.734 351.314 682.67 350.9 684.57C350.9 684.57 306.66 687.77 292.8 686.7C286.13 686.19 283.3 683.7 282.8 681.32C282.19 684.06 284.61 687.67 292.8 688.32C306.66 689.39 350.9 686.19 350.9 686.19C351.421 683.759 351.646 681.275 351.57 678.79Z" fill="white"/>
<g opacity="0.05">
<path opacity="0.05" d="M293.07 480.41C285.88 486.11 279.52 488.41 275.34 489.41C275.34 489.81 275.42 490.2 275.48 490.58C275.48 490.58 285.61 491.11 298.4 480.99C300.382 479.292 302.724 478.068 305.25 477.41C302.46 476.04 298.48 476.13 293.07 480.41Z" fill="black"/>
<path opacity="0.05" d="M365.41 380.47C363.5 374.86 360.73 367.75 358.54 366.07C358.406 365.961 358.258 365.871 358.1 365.8C358.1 365.8 353.69 365.95 353.84 366.07C356.03 367.74 358.17 374.33 360.08 379.93C361.628 384.482 362.026 389.347 361.24 394.09C359.34 405.53 355.24 429.09 350.64 449.48C344.24 477.73 337.31 471.33 334.12 478.26C331.5 483.94 332.81 491.4 333.38 493.91C335.104 494.773 336.993 495.254 338.92 495.32C338.92 495.32 336.25 485.73 339.45 478.8C342.65 471.87 349.58 478.27 355.97 450.02C360.6 429.58 364.67 406.02 366.57 394.63C367.356 389.887 366.958 385.022 365.41 380.47V380.47Z" fill="black"/>
</g>
<path d="M427.36 480.04C429.193 478.546 430.528 476.53 431.19 474.26C431.69 471.96 430.71 469.21 428.51 468.37C426.05 467.43 423.42 469.13 421.43 470.86C419.44 472.59 417.15 474.55 414.54 474.18C415.881 472.964 416.885 471.421 417.453 469.702C418.021 467.983 418.133 466.146 417.78 464.37C417.667 463.634 417.356 462.943 416.88 462.37C415.51 460.91 413.04 461.54 411.4 462.69C406.2 466.35 404.75 473.41 404.72 479.77C404.2 477.48 404.64 475.09 404.62 472.77C404.6 470.45 403.96 467.77 401.98 466.55C400.752 465.89 399.373 465.563 397.98 465.6C395.64 465.51 393.04 465.75 391.44 467.46C389.44 469.58 389.97 473.15 391.7 475.46C393.43 477.77 396.05 479.26 398.47 480.88C400.41 482.033 402.064 483.609 403.31 485.49C403.457 485.751 403.577 486.026 403.67 486.31H418.32C421.602 484.637 424.643 482.528 427.36 480.04V480.04Z" fill="#DE4F1C"/>
<path d="M454.27 667.81C456.6 665.64 458.79 663.08 459.47 659.97C460.15 656.86 458.82 653.12 455.84 651.97C452.51 650.69 448.94 652.97 446.24 655.34C443.54 657.71 440.44 660.34 436.91 659.84C438.728 658.191 440.088 656.099 440.857 653.768C441.627 651.438 441.779 648.947 441.3 646.54C441.145 645.546 440.723 644.613 440.08 643.84C438.23 641.84 434.87 642.71 432.66 644.27C425.66 649.27 423.66 658.8 423.61 667.42C422.9 664.31 423.5 661.07 423.48 657.88C423.46 654.69 422.59 651.16 419.9 649.44C418.225 648.54 416.341 648.098 414.44 648.16C411.27 648.04 407.74 648.36 405.58 650.68C402.89 653.56 403.58 658.39 405.93 661.56C408.28 664.73 411.83 666.72 415.1 668.91C417.725 670.475 419.964 672.611 421.65 675.16C421.85 675.516 422.014 675.891 422.14 676.28H442.01C446.46 674.022 450.584 671.173 454.27 667.81V667.81Z" fill="#DE4F1C"/>
</g>
<path d="M1170.2 671.52C1172.04 670.026 1173.37 668.01 1174.03 665.74C1174.53 663.44 1173.55 660.69 1171.35 659.85C1168.89 658.91 1166.26 660.61 1164.27 662.34C1162.28 664.07 1159.99 666.03 1157.38 665.66C1158.73 664.444 1159.73 662.901 1160.3 661.182C1160.86 659.463 1160.98 657.626 1160.62 655.85C1160.51 655.114 1160.2 654.423 1159.72 653.85C1158.35 652.39 1155.88 653.02 1154.24 654.17C1149.04 657.83 1147.59 664.89 1147.56 671.25C1147.04 668.96 1147.48 666.57 1147.46 664.25C1147.44 661.93 1146.8 659.25 1144.82 658.03C1143.6 657.37 1142.22 657.043 1140.82 657.08C1138.48 656.99 1135.88 657.23 1134.28 658.94C1132.28 661.06 1132.81 664.63 1134.54 666.94C1136.27 669.25 1138.89 670.74 1141.31 672.36C1143.25 673.513 1144.91 675.089 1146.15 676.97C1146.3 677.231 1146.42 677.506 1146.51 677.79H1161.16C1164.45 676.117 1167.49 674.008 1170.2 671.52Z" fill="#DE4F1C"/>
<path opacity="0.1" d="M1223.36 758.16C1340.09 758.16 1434.72 739.768 1434.72 717.08C1434.72 694.392 1340.09 676 1223.36 676C1106.63 676 1012 694.392 1012 717.08C1012 739.768 1106.63 758.16 1223.36 758.16Z" fill="#DE4F1C"/>
<defs>
<linearGradient id="paint0_linear" x1="802.72" y1="616.548" x2="802.72" y2="277.998" gradientUnits="userSpaceOnUse">
<stop stop-color="#808080" stop-opacity="0.25"/>
<stop offset="0.54" stop-color="#808080" stop-opacity="0.12"/>
<stop offset="1" stop-color="#808080" stop-opacity="0.1"/>
</linearGradient>
<linearGradient id="paint1_linear" x1="58048" y1="306947" x2="58048" y2="150986" gradientUnits="userSpaceOnUse">
<stop stop-color="#808080" stop-opacity="0.25"/>
<stop offset="0.54" stop-color="#808080" stop-opacity="0.12"/>
<stop offset="1" stop-color="#808080" stop-opacity="0.1"/>
</linearGradient>
<clipPath id="clip0">
<rect width="1030.01" height="729.86" fill="white"/>
</clipPath>
</defs>
</svg>
