<svg width="311" height="311" viewBox="0 0 311 311" fill="none" xmlns="http://www.w3.org/2000/svg">
<path d="M219.041 229.167C216.897 227.011 214.439 225.111 211.543 223.728C197.823 217.164 181.56 223.073 175.097 236.603C168.589 250.224 174.33 266.554 187.981 273.057C201.55 279.524 217.911 273.794 224.427 260.182V260.173L246.359 214.243L256.209 242.102L273.382 236.034L248.869 166.694L219.041 229.167Z" fill="#DE4F1C"/>
<path d="M168.545 96.608C163.636 92.8007 157.896 90.1718 151.58 89.2564C131.664 86.4082 113.173 100.097 110.277 120.078C107.049 142.183 124.276 161.764 146.366 161.764C164.162 161.764 179.768 148.676 182.402 130.56C182.408 130.523 182.402 130.488 182.408 130.451L182.42 130.454L195.731 29.8706L289.854 20.4476L281.283 85.3106C276.472 81.5713 270.767 78.8652 264.317 77.9298C244.524 75.0603 225.922 88.6915 223.014 108.752C219.786 130.857 237.013 150.438 259.103 150.438C276.899 150.438 292.505 137.349 295.139 119.224C295.144 119.188 295.138 119.152 295.143 119.115L295.157 119.118L310.96 0L179.573 13.1956L168.545 96.608Z" fill="#DE4F1C"/>
<path d="M26.9823 311C44.0915 311 56.9513 295.447 53.8801 278.728L42.0196 213.433L93.9317 190.13L100.342 225.702C97.3126 225.217 94.2038 225.145 91.0841 225.715C76.2527 228.436 66.3936 242.636 69.1246 257.524C71.5895 270.961 83.2976 279.929 95.9514 279.929C113.1 279.929 125.973 264.455 122.894 247.666L107.652 163.882L21.5368 202.72L31.3357 256.788C28.3302 256.297 25.2208 256.197 22.0622 256.777C7.23804 259.491 -2.21587 273.772 0.50659 288.595C2.91806 301.755 14.0539 311 26.9823 311Z" fill="#DE4F1C"/>
<path d="M27.4032 142.207C39.9726 150.528 56.9239 147.138 65.2808 134.519C69.3202 128.433 70.744 121.137 69.2935 113.983L59.1586 64.1018L83.7878 80.4293L93.86 65.2316L32.5548 24.6133L46.3274 92.4861C34.9662 90.8557 25.1898 96.0541 19.7151 104.32C11.3406 116.966 14.8594 133.899 27.4032 142.207Z" fill="#DE4F1C"/>
</svg>
