<svg width="153" height="31" viewBox="0 0 153 31" fill="none" xmlns="http://www.w3.org/2000/svg">
<path d="M43.3506 18V5.20312H47.2881C48.4131 5.20312 49.418 5.45801 50.3027 5.96777C51.1934 6.47168 51.8877 7.19238 52.3857 8.12988C52.8838 9.06152 53.1328 10.1221 53.1328 11.3115V11.9004C53.1328 13.0898 52.8867 14.1475 52.3945 15.0732C51.9082 15.999 51.2197 16.7168 50.3291 17.2266C49.4385 17.7363 48.4336 17.9941 47.3145 18H43.3506ZM45.9873 7.33887V15.8818H47.2617C48.293 15.8818 49.0811 15.5449 49.626 14.8711C50.1709 14.1973 50.4492 13.2334 50.4609 11.9795V11.3027C50.4609 10.002 50.1914 9.01758 49.6523 8.34961C49.1133 7.67578 48.3252 7.33887 47.2881 7.33887H45.9873ZM64.7432 5.20312V13.6318C64.7432 15.0322 64.3037 16.1396 63.4248 16.9541C62.5518 17.7686 61.3564 18.1758 59.8389 18.1758C58.3447 18.1758 57.1582 17.7803 56.2793 16.9893C55.4004 16.1982 54.9521 15.1113 54.9346 13.7285V5.20312H57.5713V13.6494C57.5713 14.4873 57.7705 15.0996 58.1689 15.4863C58.5732 15.8672 59.1299 16.0576 59.8389 16.0576C61.3213 16.0576 62.0742 15.2783 62.0977 13.7197V5.20312H64.7432ZM70.3506 5.20312L73.6377 14.4844L76.9072 5.20312H80.3701V18H77.7246V14.502L77.9883 8.46387L74.5342 18H72.7236L69.2783 8.47266L69.542 14.502V18H66.9053V5.20312H70.3506ZM82.6729 18V5.20312H87.1553C88.708 5.20312 89.8857 5.50195 90.6885 6.09961C91.4912 6.69141 91.8926 7.56152 91.8926 8.70996C91.8926 9.33691 91.7314 9.89062 91.4092 10.3711C91.0869 10.8457 90.6387 11.1943 90.0645 11.417C90.7207 11.5811 91.2363 11.9121 91.6113 12.4102C91.9922 12.9082 92.1826 13.5176 92.1826 14.2383C92.1826 15.4688 91.79 16.4004 91.0049 17.0332C90.2197 17.666 89.1006 17.9883 87.6475 18H82.6729ZM85.3096 12.4277V15.8818H87.5684C88.1895 15.8818 88.6729 15.7354 89.0186 15.4424C89.3701 15.1436 89.5459 14.7334 89.5459 14.2119C89.5459 13.04 88.9395 12.4453 87.7266 12.4277H85.3096ZM85.3096 10.5645H87.2607C88.5908 10.541 89.2559 10.0107 89.2559 8.97363C89.2559 8.39355 89.0859 7.97754 88.7461 7.72559C88.4121 7.46777 87.8818 7.33887 87.1553 7.33887H85.3096V10.5645Z" fill="#F95F3D"/>
<path d="M100.805 14.6426C100.805 14.1445 100.629 13.7637 100.277 13.5C99.9258 13.2305 99.293 12.9492 98.3789 12.6562C97.4648 12.3574 96.7412 12.0645 96.208 11.7773C94.7549 10.9922 94.0283 9.93457 94.0283 8.60449C94.0283 7.91309 94.2217 7.29785 94.6084 6.75879C95.001 6.21387 95.5605 5.78906 96.2871 5.48438C97.0195 5.17969 97.8398 5.02734 98.748 5.02734C99.6621 5.02734 100.477 5.19434 101.191 5.52832C101.906 5.85645 102.46 6.32227 102.853 6.92578C103.251 7.5293 103.45 8.21484 103.45 8.98242H100.813C100.813 8.39648 100.629 7.94238 100.26 7.62012C99.8906 7.29199 99.3721 7.12793 98.7041 7.12793C98.0596 7.12793 97.5586 7.26563 97.2012 7.54102C96.8438 7.81055 96.665 8.16797 96.665 8.61328C96.665 9.0293 96.873 9.37793 97.2891 9.65918C97.7109 9.94043 98.3291 10.2041 99.1436 10.4502C100.644 10.9014 101.736 11.4609 102.422 12.1289C103.107 12.7969 103.45 13.6289 103.45 14.625C103.45 15.7324 103.031 16.6025 102.193 17.2354C101.355 17.8623 100.228 18.1758 98.8096 18.1758C97.8252 18.1758 96.9287 17.9971 96.1201 17.6396C95.3115 17.2764 94.6934 16.7812 94.2656 16.1543C93.8438 15.5273 93.6328 14.8008 93.6328 13.9746H96.2783C96.2783 15.3867 97.1221 16.0928 98.8096 16.0928C99.4365 16.0928 99.9258 15.9668 100.277 15.7148C100.629 15.457 100.805 15.0996 100.805 14.6426ZM115.755 11.8916C115.755 13.1514 115.532 14.2559 115.087 15.2051C114.642 16.1543 114.003 16.8867 113.171 17.4023C112.345 17.918 111.396 18.1758 110.323 18.1758C109.263 18.1758 108.316 17.9209 107.484 17.4111C106.652 16.9014 106.008 16.1748 105.551 15.2314C105.094 14.2822 104.862 13.1924 104.856 11.9619V11.3291C104.856 10.0693 105.082 8.96191 105.533 8.00684C105.99 7.0459 106.632 6.31055 107.458 5.80078C108.29 5.28516 109.239 5.02734 110.306 5.02734C111.372 5.02734 112.318 5.28516 113.145 5.80078C113.977 6.31055 114.618 7.0459 115.069 8.00684C115.526 8.96191 115.755 10.0664 115.755 11.3203V11.8916ZM113.083 11.3115C113.083 9.96973 112.843 8.9502 112.362 8.25293C111.882 7.55566 111.196 7.20703 110.306 7.20703C109.421 7.20703 108.738 7.55273 108.258 8.24414C107.777 8.92969 107.534 9.9375 107.528 11.2676V11.8916C107.528 13.1982 107.769 14.2119 108.249 14.9326C108.729 15.6533 109.421 16.0137 110.323 16.0137C111.208 16.0137 111.888 15.668 112.362 14.9766C112.837 14.2793 113.077 13.2656 113.083 11.9355V11.3115ZM127.356 5.20312V13.6318C127.356 15.0322 126.917 16.1396 126.038 16.9541C125.165 17.7686 123.97 18.1758 122.452 18.1758C120.958 18.1758 119.771 17.7803 118.893 16.9893C118.014 16.1982 117.565 15.1113 117.548 13.7285V5.20312H120.185V13.6494C120.185 14.4873 120.384 15.0996 120.782 15.4863C121.187 15.8672 121.743 16.0576 122.452 16.0576C123.935 16.0576 124.688 15.2783 124.711 13.7197V5.20312H127.356ZM139.925 18H137.288L132.155 9.58008V18H129.519V5.20312H132.155L137.297 13.6406V5.20312H139.925V18ZM142.228 18V5.20312H146.165C147.29 5.20312 148.295 5.45801 149.18 5.96777C150.07 6.47168 150.765 7.19238 151.263 8.12988C151.761 9.06152 152.01 10.1221 152.01 11.3115V11.9004C152.01 13.0898 151.764 14.1475 151.271 15.0732C150.785 15.999 150.097 16.7168 149.206 17.2266C148.315 17.7363 147.311 17.9941 146.191 18H142.228ZM144.864 7.33887V15.8818H146.139C147.17 15.8818 147.958 15.5449 148.503 14.8711C149.048 14.1973 149.326 13.2334 149.338 11.9795V11.3027C149.338 10.002 149.068 9.01758 148.529 8.34961C147.99 7.67578 147.202 7.33887 146.165 7.33887H144.864Z" fill="white"/>
<path d="M6.76501 6.08742V23.1257C6.75576 24.1968 6.39528 25.2203 5.76195 25.9738C5.12862 26.7273 4.27355 27.1499 3.38251 27.1499C2.49145 27.1499 1.63639 26.7273 1.00306 25.9738C0.369718 25.2203 0.00926658 24.1968 0 23.1257V6.08742C0.000582016 5.00908 0.357429 3.97517 0.992058 3.21307C1.62669 2.45097 2.48713 2.02311 3.38415 2.02357C3.94512 2.02178 4.49741 2.18966 4.99026 2.51177C4.99794 2.51573 5.00123 2.52056 5.00489 2.52056C5.00679 2.52307 5.00939 2.52464 5.01221 2.52496C5.29271 2.70894 5.54913 2.94161 5.77318 3.21547C6.08767 3.59209 6.33715 4.03968 6.50738 4.53253C6.67758 5.02538 6.76512 5.5538 6.76501 6.08742Z" fill="white"/>
<path d="M14.4951 9.76869V26.8026C14.4951 27.3366 14.4076 27.8653 14.2376 28.3586C14.0677 28.8519 13.8185 29.3001 13.5045 29.6777C13.1904 30.0553 12.8175 30.3548 12.4071 30.5591C11.9968 30.7635 11.557 30.8686 11.1128 30.8686C10.6686 30.8686 10.2288 30.7635 9.81844 30.5591C9.40806 30.3548 9.03522 30.0553 8.72113 29.6777C8.40704 29.3001 8.1579 28.8519 7.98792 28.3586C7.81794 27.8653 7.73047 27.3366 7.73047 26.8026V9.76869C7.73036 9.23441 7.81783 8.70532 7.98788 8.21172C8.1579 7.71807 8.40719 7.26955 8.72146 6.89176C9.03573 6.51396 9.40883 6.21427 9.81942 6.00989C10.2301 5.80547 10.6702 5.70031 11.1146 5.70044C11.2354 5.70044 11.3524 5.70924 11.4658 5.72199H11.4735C12.3034 5.83045 13.0707 6.30342 13.6283 7.05013C14.1859 7.79684 14.4946 8.76478 14.4951 9.76825V9.76869Z" fill="#F95F3D"/>
<path d="M22.2695 4.92633V21.9646C22.2695 23.043 21.9132 24.0772 21.2789 24.8398C20.6446 25.6023 19.7842 26.0307 18.8872 26.0307C17.9902 26.0307 17.1299 25.6023 16.4955 24.8398C15.8612 24.0772 15.5049 23.043 15.5049 21.9646V4.92633C15.5049 4.39228 15.5924 3.86347 15.7626 3.37014C15.9327 2.8768 16.182 2.42861 16.4963 2.05119C16.8106 1.67377 17.1837 1.37452 17.5942 1.17055C18.0048 0.966581 18.4448 0.861893 18.889 0.862471C19.0286 0.860742 19.1681 0.872508 19.3061 0.897656H19.3134C20.0573 1.00585 20.7493 1.41172 21.2781 2.04996C21.5926 2.42745 21.842 2.87583 22.0122 3.3694C22.1823 3.86298 22.2698 4.39205 22.2695 4.92633Z" fill="white"/>
<path d="M30 9.5747V26.609C30 27.143 29.9125 27.6717 29.7425 28.165C29.5725 28.6584 29.3234 29.1066 29.0093 29.4842C28.6953 29.8617 28.3224 30.1612 27.912 30.3656C27.5017 30.5699 27.0618 30.6751 26.6177 30.6751C26.1735 30.6751 25.7337 30.5699 25.3233 30.3656C24.9129 30.1612 24.5401 29.8617 24.226 29.4842C23.9119 29.1066 23.6628 28.6584 23.4928 28.165C23.3228 27.6717 23.2354 27.143 23.2354 26.609V9.5747C23.2353 9.04041 23.3228 8.51141 23.4928 8.01776C23.6629 7.52416 23.9122 7.07564 24.2264 6.69789C24.5407 6.32009 24.9138 6.02045 25.3244 5.81602C25.735 5.6116 26.1751 5.5064 26.6195 5.50644C27.0671 5.50424 27.5103 5.61217 27.9219 5.82355H27.9256C27.9275 5.82605 27.9301 5.82764 27.9329 5.82794C28.3357 6.03026 28.7012 6.32621 29.0085 6.69877C29.3239 7.07534 29.574 7.5235 29.7442 8.01719C29.9144 8.51088 30.0014 9.04028 30 9.5747Z" fill="#F95F3D"/>
</svg>
