<svg width="819" height="530" viewBox="0 0 819 530" fill="none" xmlns="http://www.w3.org/2000/svg">
<g clip-path="url(#clip0)">
<path d="M816.405 304.62H296.9V8.26501H816.405V304.62Z" fill="#231E23"/>
<path d="M818.406 306.62H294.9V6.26477H818.406V306.62ZM298.9 302.62H814.406V10.2648H298.9V302.62Z" fill="#CACACA"/>
<path d="M577.272 18.891H481.63V0H577.272L586.712 9.446L577.272 18.891Z" fill="#CACACA"/>
<path d="M482.815 18.891H387.175V0H482.815L492.257 9.446L482.815 18.891Z" fill="#3F3D56"/>
<path d="M389.541 18.891H293.899V0H389.541L398.982 9.446L389.541 18.891Z" fill="#DE4F1C"/>
<path d="M329.565 211.667C328.585 210.246 327.305 209.056 325.816 208.183C324.326 207.31 322.663 206.774 320.944 206.613C319.225 206.451 317.491 206.669 315.865 207.251C314.239 207.832 312.761 208.763 311.534 209.977L286.646 199.533L276.61 213.11L311.964 227.365C314.141 229.291 316.949 230.352 319.856 230.347C322.763 230.341 325.567 229.269 327.737 227.334C329.907 225.399 331.291 222.736 331.628 219.848C331.965 216.961 331.231 214.05 329.566 211.667H329.565Z" fill="#A0616A"/>
<path d="M281.261 512.726L296.464 512.725L297.94 458.653L281.258 454.085L281.261 512.726Z" fill="#A0616A"/>
<path d="M277.383 507.762L307.324 507.761H307.325C312.385 507.761 317.238 509.771 320.817 513.35C324.395 516.928 326.405 521.781 326.406 526.841V527.461L277.384 527.463L277.383 507.762Z" fill="#2F2E41"/>
<path d="M167.032 512.726L182.235 512.725L189.468 454.084L167.029 454.085L167.032 512.726Z" fill="#A0616A"/>
<path d="M163.154 507.762L193.095 507.761H193.096C198.156 507.761 203.009 509.771 206.587 513.35C210.166 516.928 212.176 521.781 212.176 526.841V527.461L163.155 527.463L163.154 507.762Z" fill="#2F2E41"/>
<path d="M258.406 175.105L308.644 203.571L299.754 226.24C299.754 226.24 268.802 211.323 266.768 212.378C264.735 213.432 258.406 175.105 258.406 175.105Z" fill="#575A89"/>
<path d="M201.756 260.741L190.303 369.544L155.944 494.996L184.576 499.578L267.037 324.878L252.149 230.964L226.952 221.802L201.756 260.741Z" fill="#2F2E41"/>
<path d="M183.431 259.596C183.431 259.596 212.067 276.419 221.406 309.105C231.406 344.105 249.858 398.177 249.858 398.177L275.054 500.723L305.977 492.706L269.328 259.596L238.405 233.254L198.32 228.673L183.431 259.596Z" fill="#2F2E41"/>
<path d="M254.008 80.4006C268.556 80.4006 280.349 68.607 280.349 54.0589C280.349 39.5108 268.556 27.7172 254.008 27.7172C239.46 27.7172 227.666 39.5108 227.666 54.0589C227.666 68.607 239.46 80.4006 254.008 80.4006Z" fill="#A0616A"/>
<path d="M256.352 104.982C256.352 104.982 237.437 84.1814 222.548 84.1814C217.763 84.1814 184.453 121.297 183.406 148.105L172.746 266.468C172.746 266.468 275.822 272.194 276.967 267.613C278.113 263.032 256.352 104.982 256.352 104.982Z" fill="#575A89"/>
<path d="M240.885 65.5737C242.998 65.4476 245.061 66.1617 247.16 66.4403C250.937 66.8217 254.726 65.837 257.84 63.6649C260.954 61.4928 263.187 58.2768 264.134 54.6C264.267 53.616 264.56 52.6604 265.002 51.7713C266.158 49.8849 268.789 49.5253 270.958 49.959C273.127 50.3928 275.183 51.408 277.392 51.5239C279.106 51.5304 280.791 51.0899 282.282 50.2459C283.774 49.402 285.019 48.1837 285.895 46.7114C287.613 43.7283 288.344 40.2784 287.982 36.855L286.347 38.5711C285.683 37.1655 285.426 35.6016 285.607 34.0574C284.74 33.8266 283.829 33.8222 282.961 34.0444C282.092 34.2667 281.295 34.7083 280.646 35.3269C279.204 35.4803 280.292 32.6526 279.221 31.6754C278.7 31.3553 278.079 31.2392 277.478 31.3492C274.41 31.3788 271.929 29.0328 269.512 27.1442C265.324 23.8793 260.427 21.6454 255.216 20.6232C251.761 19.8037 248.145 19.979 244.785 21.1289C242.133 22.3192 239.74 24.0167 237.741 26.1259C232.598 31.0707 228.044 36.8806 225.905 43.6864C224.166 49.2609 224.117 55.2257 225.763 60.8282C226.625 63.7377 229.224 73.702 233.027 73.934C237.806 74.2256 234.937 65.9286 240.885 65.5737Z" fill="#2F2E41"/>
<path opacity="0.1" d="M234.047 133.571L207.073 173.132L198.447 265.027L234.047 133.571Z" fill="black"/>
<path d="M194.899 300.721C196.067 299.451 196.943 297.939 197.465 296.293C197.986 294.646 198.14 292.906 197.916 291.194C197.692 289.482 197.096 287.84 196.168 286.383C195.241 284.926 194.006 283.691 192.549 282.763L197.216 256.179L181.753 249.403L175.689 287.038C174.293 289.588 173.881 292.561 174.531 295.395C175.181 298.228 176.848 300.725 179.216 302.412C181.584 304.098 184.488 304.858 187.378 304.546C190.269 304.235 192.944 302.874 194.898 300.721H194.899Z" fill="#A0616A"/>
<path d="M209.602 96.3659L182.049 185.749C182.049 185.749 171.816 242.707 176.397 251.87C180.978 261.032 171.978 279.066 171.978 279.066L198.32 281.357L211.125 187.749L233.824 116.435C233.824 116.435 242.816 90.6394 209.602 96.3659Z" fill="#575A89"/>
<path d="M516.747 175H510.82V152.154L503.745 154.349V149.529L516.111 145.1H516.747V175ZM546.565 162.654C546.565 166.783 545.711 169.941 544.002 172.129C542.293 174.316 539.791 175.41 536.496 175.41C533.242 175.41 530.754 174.337 529.031 172.19C527.309 170.044 526.427 166.968 526.386 162.962V157.466C526.386 153.296 527.247 150.131 528.97 147.971C530.706 145.811 533.201 144.73 536.455 144.73C539.709 144.73 542.197 145.804 543.92 147.95C545.643 150.083 546.524 153.152 546.565 157.158V162.654ZM540.639 156.625C540.639 154.15 540.297 152.353 539.613 151.231C538.943 150.097 537.891 149.529 536.455 149.529C535.061 149.529 534.028 150.069 533.358 151.149C532.702 152.216 532.354 153.891 532.312 156.174V163.434C532.312 165.867 532.641 167.679 533.297 168.868C533.967 170.044 535.033 170.632 536.496 170.632C537.945 170.632 538.991 170.064 539.634 168.93C540.276 167.795 540.611 166.059 540.639 163.721V156.625ZM570.683 162.654C570.683 166.783 569.828 169.941 568.119 172.129C566.41 174.316 563.908 175.41 560.613 175.41C557.359 175.41 554.871 174.337 553.148 172.19C551.426 170.044 550.544 166.968 550.503 162.962V157.466C550.503 153.296 551.364 150.131 553.087 147.971C554.823 145.811 557.318 144.73 560.572 144.73C563.826 144.73 566.314 145.804 568.037 147.95C569.76 150.083 570.642 153.152 570.683 157.158V162.654ZM564.756 156.625C564.756 154.15 564.414 152.353 563.73 151.231C563.061 150.097 562.008 149.529 560.572 149.529C559.178 149.529 558.146 150.069 557.476 151.149C556.819 152.216 556.471 153.891 556.43 156.174V163.434C556.43 165.867 556.758 167.679 557.414 168.868C558.084 170.044 559.15 170.632 560.613 170.632C562.062 170.632 563.108 170.064 563.751 168.93C564.394 167.795 564.729 166.059 564.756 163.721V156.625ZM574.62 150.883C574.62 149.051 575.215 147.567 576.404 146.433C577.594 145.284 579.152 144.71 581.08 144.71C583.035 144.71 584.607 145.277 585.797 146.412C586.986 147.533 587.581 149.058 587.581 150.985V152.462C587.581 154.308 586.986 155.791 585.797 156.912C584.607 158.033 583.049 158.594 581.121 158.594C579.18 158.594 577.607 158.033 576.404 156.912C575.215 155.777 574.62 154.253 574.62 152.339V150.883ZM578.558 152.462C578.558 153.282 578.79 153.945 579.255 154.451C579.733 154.943 580.355 155.189 581.121 155.189C581.887 155.189 582.495 154.937 582.946 154.431C583.397 153.925 583.623 153.248 583.623 152.4V150.883C583.623 150.062 583.397 149.399 582.946 148.894C582.495 148.388 581.873 148.135 581.08 148.135C580.328 148.135 579.72 148.388 579.255 148.894C578.79 149.386 578.558 150.076 578.558 150.965V152.462ZM588.894 167.679C588.894 165.833 589.495 164.35 590.698 163.229C591.901 162.094 593.46 161.526 595.374 161.526C597.315 161.526 598.881 162.087 600.07 163.208C601.273 164.315 601.875 165.847 601.875 167.802V169.278C601.875 171.11 601.287 172.594 600.111 173.729C598.936 174.85 597.37 175.41 595.415 175.41C593.446 175.41 591.867 174.843 590.678 173.708C589.488 172.573 588.894 171.069 588.894 169.196V167.679ZM592.831 169.278C592.831 170.03 593.077 170.673 593.569 171.206C594.062 171.739 594.677 172.006 595.415 172.006C597.083 172.006 597.917 171.083 597.917 169.237V167.679C597.917 166.858 597.685 166.202 597.22 165.71C596.755 165.204 596.14 164.951 595.374 164.951C594.608 164.951 593.993 165.204 593.528 165.71C593.063 166.202 592.831 166.879 592.831 167.74V169.278ZM582.29 172.765L579.398 171.206L593.979 147.868L596.871 149.427L582.29 172.765Z" fill="white"/>
<path d="M625.5 160.5C625.5 202.559 591.836 236.5 550.5 236.5C509.164 236.5 475.5 202.559 475.5 160.5C475.5 118.441 509.164 84.5 550.5 84.5C591.836 84.5 625.5 118.441 625.5 160.5Z" stroke="#DE4F1C" stroke-width="15"/>
</g>
<defs>
<clipPath id="clip0">
<rect width="818.406" height="529.105" fill="white"/>
</clipPath>
</defs>
</svg>
