<svg width="30" height="30" viewBox="0 0 30 30" fill="none" xmlns="http://www.w3.org/2000/svg">
<path d="M29.0617 13.8588H17.187C16.6695 13.8588 16.2495 13.4449 16.2495 12.935C16.2495 12.425 16.6695 12.0111 17.187 12.0111H29.0617C29.5792 12.0111 29.9992 12.425 29.9992 12.935C29.9992 13.4449 29.5792 13.8588 29.0617 13.8588Z" fill="#EE4622"/>
<path d="M24.3742 18.478C24.1341 18.478 23.8942 18.3881 23.7116 18.2072C23.3454 17.846 23.3454 17.261 23.7116 16.9001L27.7366 12.9338L23.7116 8.9672C23.3454 8.60632 23.3454 8.02124 23.7116 7.66036C24.078 7.29925 24.6717 7.29925 25.0379 7.66036L29.7253 12.2797C30.0915 12.6405 30.0915 13.2256 29.7253 13.5865L25.0379 18.2058C24.8541 18.3881 24.6143 18.478 24.3742 18.478V18.478Z" fill="#EE4622"/>
<path d="M9.99976 29.5647C9.73221 29.5647 9.47839 29.5277 9.22479 29.4501L1.70237 26.9803C0.678842 26.628 0 25.6882 0 24.6375V2.46492C0 1.1062 1.12126 0.0012207 2.5 0.0012207C2.76732 0.0012207 3.02115 0.0382112 3.27497 0.115801L10.7972 2.58559C11.8209 2.9379 12.4995 3.87777 12.4995 4.92839V27.101C12.4995 28.4597 11.3785 29.5647 9.99976 29.5647ZM2.5 1.84894C2.15623 1.84894 1.87494 2.12614 1.87494 2.46492V24.6375C1.87494 24.8999 2.05369 25.1437 2.30866 25.2312L9.79584 27.6899C9.84962 27.7071 9.91966 27.717 9.99976 27.717C10.3435 27.717 10.6246 27.4398 10.6246 27.101V4.92839C10.6246 4.66608 10.4458 4.42226 10.1909 4.33474L2.7037 1.87601C2.64991 1.85886 2.57988 1.84894 2.5 1.84894V1.84894Z" fill="#EE4622"/>
<path d="M19.0617 9.85555C18.5443 9.85555 18.1243 9.44166 18.1243 8.93169V3.38854C18.1243 2.53978 17.4232 1.84869 16.562 1.84869H2.49991C1.98242 1.84869 1.56244 1.43481 1.56244 0.924836C1.56244 0.414864 1.98242 0.000976562 2.49991 0.000976562H16.562C18.4582 0.000976562 19.9992 1.51984 19.9992 3.38854V8.93169C19.9992 9.44166 19.5792 9.85555 19.0617 9.85555Z" fill="#EE4622"/>
<path d="M16.562 25.869H11.562C11.0446 25.869 10.6246 25.4551 10.6246 24.9451C10.6246 24.4351 11.0446 24.0212 11.562 24.0212H16.562C17.4233 24.0212 18.1243 23.3302 18.1243 22.4814V16.9383C18.1243 16.4283 18.5443 16.0144 19.0618 16.0144C19.5793 16.0144 19.9993 16.4283 19.9993 16.9383V22.4814C19.9993 24.3501 18.4583 25.869 16.562 25.869V25.869Z" fill="#EE4622"/>
</svg>
