<svg width="30" height="26" viewBox="0 0 30 26" fill="none" xmlns="http://www.w3.org/2000/svg">
<path d="M22.9688 3.26342V1.57422C22.9688 1.25061 22.7064 0.988281 22.3828 0.988281H14.1211C13.7975 0.988281 13.5352 1.25061 13.5352 1.57422C13.5352 1.89783 13.7975 2.16016 14.1211 2.16016H21.7969V23.8398H1.17188V2.16016H8.84766C9.17121 2.16016 9.43359 1.89783 9.43359 1.57422C9.43359 1.25061 9.17121 0.988281 8.84766 0.988281H0.585938C0.262383 0.988281 0 1.25061 0 1.57422V24.4258C0 24.7494 0.262383 25.0117 0.585938 25.0117H22.3828C22.7064 25.0117 22.9688 24.7494 22.9688 24.4258V22.7366C27.0017 21.3983 30 17.5962 30 13C30 8.40719 27.005 4.60275 22.9688 3.26342V3.26342ZM22.9688 21.4935V4.50648C26.4548 5.8307 28.8281 9.21771 28.8281 13C28.8281 16.7823 26.4548 20.1694 22.9688 21.4935Z" fill="#EE4622"/>
<path d="M7.38281 8.60552V17.1239C7.03781 16.9238 6.63768 16.8086 6.21094 16.8086C4.91859 16.8086 3.86719 17.8601 3.86719 19.1524C3.86719 20.4447 4.91859 21.4961 6.21094 21.4961C7.50328 21.4961 8.55469 20.4447 8.55469 19.1524V12.5178L16.1719 9.47095V13.6083C15.8269 13.4082 15.4267 13.293 15 13.293C13.7077 13.293 12.6562 14.3444 12.6562 15.6368C12.6562 16.9291 13.7077 17.9805 15 17.9805C16.2923 17.9805 17.3438 16.9291 17.3438 15.6368C17.3438 15.0307 17.3438 5.73261 17.3438 5.0899C17.3438 4.89549 17.2473 4.71373 17.0863 4.60468C16.9253 4.4957 16.7208 4.47355 16.5402 4.54586L7.75113 8.06148C7.52865 8.15048 7.38281 8.36593 7.38281 8.60552V8.60552ZM6.21094 20.3243C5.56477 20.3243 5.03906 19.7986 5.03906 19.1524C5.03906 18.5062 5.56477 17.9805 6.21094 17.9805C6.85711 17.9805 7.38281 18.5062 7.38281 19.1524C7.38281 19.7986 6.85711 20.3243 6.21094 20.3243ZM15 16.8086C14.3538 16.8086 13.8281 16.2829 13.8281 15.6368C13.8281 14.9906 14.3538 14.4649 15 14.4649C15.6462 14.4649 16.1719 14.9906 16.1719 15.6368C16.1719 16.2829 15.6462 16.8086 15 16.8086ZM16.1719 5.95539V8.20884L8.55469 11.2557V9.00226L16.1719 5.95539Z" fill="#EE4622"/>
<path d="M11.4844 2.16016C11.808 2.16016 12.0703 1.89782 12.0703 1.57422C12.0703 1.25061 11.808 0.988281 11.4844 0.988281C11.1608 0.988281 10.8984 1.25061 10.8984 1.57422C10.8984 1.89782 11.1608 2.16016 11.4844 2.16016Z" fill="#EE4622"/>
</svg>
